<svg width="397" height="385" viewBox="0 0 397 385" fill="none" xmlns="http://www.w3.org/2000/svg">
<path d="M44.9001 43.9401C44.9417 44.0258 44.972 44.1165 44.9901 44.2101L45.2101 45.0101C45.3211 45.4511 45.458 45.8852 45.6201 46.3101C45.8001 46.8101 45.9901 47.4001 46.2801 48.0301L46.7201 49.0301L47.2901 50.1101C47.4857 50.5069 47.7062 50.891 47.9501 51.2601C48.2001 51.6401 48.4201 52.0601 48.7201 52.4601C51.5293 56.5683 55.4629 59.7798 60.0501 61.7101C61.4419 62.2927 62.8847 62.7446 64.3601 63.0601C65.9294 63.3715 67.5154 63.5918 69.1101 63.7201C72.3801 64.0401 75.9201 64.2201 79.3101 65.5801C82.7342 67.098 85.77 69.3715 88.1901 72.2301C90.7514 74.9462 92.8221 78.0861 94.3101 81.5101C94.9828 83.1631 95.3944 84.9106 95.5301 86.6901C95.6466 88.3901 95.539 90.0981 95.2102 91.7701C94.5416 94.8347 93.6389 97.8435 92.5101 100.77C91.5476 103.309 90.831 105.934 90.3701 108.61C89.9964 110.817 90.0815 113.077 90.6201 115.25C91.0273 116.889 91.7658 118.427 92.7901 119.77C93.4371 120.622 94.2293 121.353 95.1301 121.93C95.7401 122.32 96.1301 122.47 96.1301 122.49C95.783 122.353 95.4484 122.185 95.1301 121.99C94.2082 121.427 93.3952 120.702 92.7301 119.85C91.6704 118.507 90.904 116.957 90.4801 115.3C89.9145 113.102 89.8089 110.811 90.1701 108.57C90.6267 105.879 91.3365 103.237 92.2901 100.68C93.4004 97.7507 94.2895 94.7423 94.9501 91.6801C95.2609 90.0327 95.3617 88.3527 95.2501 86.6801C95.1163 84.9369 94.7079 83.2258 94.0401 81.6101C92.5626 78.2216 90.5127 75.1128 87.9801 72.4201C85.5921 69.6008 82.5974 67.3582 79.2201 65.8601C75.9101 64.5101 72.4001 64.3301 69.1201 64.0001C67.5158 63.859 65.9202 63.632 64.3401 63.3201C62.8356 63.0179 61.3626 62.576 59.9401 62.0001C55.3141 60.0385 51.3621 56.7678 48.5701 52.5901C48.2701 52.1901 48.0401 51.7701 47.8001 51.3801C47.5628 51.0019 47.3458 50.6113 47.1501 50.2101L46.5901 49.1301L46.1601 48.1301C45.9134 47.5629 45.6997 46.9819 45.5201 46.3901C45.3699 45.9615 45.2463 45.5239 45.1501 45.0801C45.0701 44.7301 45.0001 44.4601 44.9601 44.2701C44.9319 44.1617 44.9118 44.0514 44.9001 43.9401Z" fill="#455A64"/>
<path d="M65.23 33.34L65.45 33.54L66.07 34.14C66.34 34.41 66.64 34.77 67.07 35.14C67.5 35.51 67.83 36.06 68.23 36.66C69.2402 38.0997 70.0697 39.658 70.7 41.3C71.5557 43.4703 72.0652 45.7615 72.21 48.09C72.2779 49.4418 72.2277 50.7969 72.06 52.14C71.8554 53.5949 71.5412 55.0324 71.12 56.44C70.29 59.36 69.12 62.36 68.24 65.65C67.8076 67.3277 67.5628 69.0482 67.51 70.78C67.471 72.5858 67.6557 74.3895 68.06 76.15C68.9041 79.8833 70.5942 83.373 73 86.35C75.4128 89.3014 78.3954 91.7365 81.77 93.51C84.9016 95.184 88.2757 96.3582 91.77 96.99C95.11 97.61 98.35 97.77 101.35 98.23C104.159 98.5654 106.887 99.3913 109.41 100.67C113.011 102.688 115.828 105.858 117.41 109.67C117.838 110.694 118.173 111.755 118.41 112.84C118.47 113.21 118.51 113.49 118.55 113.7C118.557 113.797 118.557 113.893 118.55 113.99C118.55 113.99 118.55 113.89 118.48 113.7C118.41 113.51 118.38 113.22 118.31 112.86C118.063 111.788 117.729 110.737 117.31 109.72C116.609 108.124 115.69 106.634 114.58 105.29C113.109 103.51 111.31 102.03 109.28 100.93C106.772 99.6789 104.065 98.8768 101.28 98.56C98.28 98.11 95.05 97.96 91.68 97.35C88.1532 96.7103 84.7464 95.5297 81.58 93.85C78.1641 92.0571 75.1441 89.5948 72.7 86.61C70.279 83.6007 68.5697 80.083 67.7 76.32C67.3042 74.5312 67.1229 72.7016 67.16 70.87C67.214 69.1146 67.4622 67.3707 67.9 65.67C68.75 62.35 69.98 59.35 70.82 56.45C71.26 55.0605 71.5943 53.6398 71.82 52.2C71.9984 50.8746 72.0553 49.5357 71.99 48.2C71.7602 44.1343 70.4294 40.2076 68.14 36.84C67.75 36.23 67.34 35.75 67.01 35.3C66.68 34.85 66.35 34.52 66.09 34.3L65.5 33.67C65.4002 33.5684 65.3098 33.4579 65.23 33.34Z" fill="#455A64"/>
<path d="M114.92 105C114.684 105.262 114.423 105.499 114.14 105.71C113.62 106.16 112.85 106.78 111.88 107.52C109.364 109.464 106.747 111.273 104.04 112.94C101.331 114.606 98.5369 116.132 95.67 117.51C94.57 118.04 93.67 118.45 93.05 118.71C92.7313 118.872 92.396 118.999 92.05 119.09C92.3478 118.902 92.6586 118.734 92.98 118.59L95.56 117.3C97.73 116.2 100.69 114.6 103.85 112.65C107.01 110.7 109.77 108.77 111.73 107.33L114.04 105.61C114.317 105.384 114.611 105.18 114.92 105V105Z" fill="#455A64"/>
<path d="M109.55 100.8C109.303 100.983 109.039 101.14 108.76 101.27L106.58 102.45C104.74 103.45 102.22 104.87 99.4901 106.54C96.7601 108.21 94.3601 109.83 92.6401 111.02L90.6401 112.44C90.3958 112.622 90.1384 112.786 89.8701 112.93C90.0807 112.709 90.3118 112.508 90.5601 112.33C91.0201 111.96 91.7001 111.45 92.5601 110.83C94.2501 109.58 96.6501 107.94 99.3801 106.26C102.11 104.58 104.66 103.19 106.53 102.26C107.47 101.78 108.23 101.41 108.77 101.17C109.02 101.026 109.281 100.902 109.55 100.8V100.8Z" fill="#455A64"/>
<path d="M101.85 99.1801C101.367 99.6011 100.849 99.9792 100.3 100.31C99.3002 100.96 97.9502 101.84 96.4102 102.77C94.8702 103.7 93.4602 104.49 92.4102 105.05C91.8623 105.377 91.2867 105.654 90.6902 105.88C91.1952 105.503 91.7303 105.169 92.2902 104.88L96.2302 102.52L100.17 100.15C100.699 99.7759 101.262 99.4512 101.85 99.1801V99.1801Z" fill="#455A64"/>
<path d="M94.67 90.6801C94.3137 91.0071 93.9212 91.2923 93.5 91.5301L90.61 93.4701L87.74 95.4701C87.3626 95.7703 86.9535 96.0285 86.52 96.2401C86.8319 95.8583 87.1954 95.5217 87.6 95.2401C88.3 94.6801 89.29 93.9501 90.42 93.1801C91.55 92.4101 92.6 91.7601 93.42 91.3201C93.8076 91.0541 94.2277 90.839 94.67 90.6801Z" fill="#455A64"/>
<path d="M94.1 83.1C94.1 83.15 93.25 83.61 91.88 84.4C90.51 85.19 88.64 86.34 86.67 87.72C84.7 89.1 82.98 90.48 81.77 91.5C81.1323 92.081 80.4647 92.6284 79.77 93.14C79.9063 92.9523 80.0604 92.7782 80.23 92.62C80.54 92.3 81.01 91.86 81.6 91.32C84.6803 88.5388 88.0889 86.1444 91.75 84.19C92.45 83.82 93.03 83.54 93.43 83.35C93.6413 83.2374 93.8666 83.1533 94.1 83.1V83.1Z" fill="#455A64"/>
<path d="M90.35 77.2201C90.4 77.3001 86.89 79.8301 82.51 82.8901C78.13 85.9501 74.51 88.3501 74.51 88.2801C74.51 88.2101 77.96 85.6601 82.34 82.6101C86.72 79.5601 90.29 77.1401 90.35 77.2201Z" fill="#455A64"/>
<path d="M87.3601 70.59C87.152 70.7806 86.9241 70.9482 86.6801 71.09C86.1801 71.43 85.5501 71.86 84.7901 72.36C83.1901 73.43 80.9901 74.93 78.6001 76.63C76.2101 78.33 74.0901 79.93 72.6001 81.09L70.7801 82.47C70.5671 82.6503 70.3359 82.8078 70.0901 82.94C70.2702 82.7236 70.475 82.529 70.7001 82.36C71.1001 82.01 71.7001 81.51 72.4501 80.9C73.9501 79.69 76.0501 78.06 78.4501 76.36C80.8501 74.66 83.0701 73.18 84.7001 72.16C85.5201 71.65 86.1901 71.25 86.7001 70.98C86.9061 70.8277 87.1273 70.697 87.3601 70.59V70.59Z" fill="#455A64"/>
<path d="M81.1901 66.92C81.2501 66.99 78.2701 69.15 74.5501 71.74C70.8301 74.33 67.7601 76.35 67.7001 76.28C67.6401 76.21 70.6301 74.04 74.3501 71.46C78.0701 68.88 81.1401 66.84 81.1901 66.92Z" fill="#455A64"/>
<path d="M74.7202 63.22C73.6606 64.2928 72.5169 65.2793 71.3002 66.17C70.158 67.1547 68.9447 68.0538 67.6702 68.86C68.734 67.7764 69.8772 66.7736 71.0902 65.86C72.234 64.8925 73.4473 64.0101 74.7202 63.22V63.22Z" fill="#455A64"/>
<path d="M70.36 53.9301C69.9147 54.4228 69.4261 54.8746 68.9 55.2801C67.97 56.0701 66.65 57.1401 65.15 58.2801C63.65 59.4201 62.26 60.3601 61.23 61.0301C60.6942 61.4186 60.1214 61.7536 59.52 62.0301C60.015 61.5869 60.5432 61.1824 61.1 60.8201C62.1 60.1001 63.46 59.1101 64.95 58.0001C66.44 56.8901 67.78 55.8501 68.75 55.1001C69.2546 54.6676 69.7929 54.2764 70.36 53.9301V53.9301Z" fill="#455A64"/>
<path d="M72.24 47.61C72.0358 47.8066 71.8112 47.9809 71.57 48.13C71.14 48.45 70.49 48.89 69.69 49.42C68.08 50.49 65.82 51.92 63.27 53.42C60.72 54.92 58.35 56.14 56.62 57C55.76 57.43 55.05 57.77 54.56 58C54.313 58.1358 54.0513 58.2431 53.78 58.32C54.0062 58.1547 54.2472 58.0107 54.5 57.89L56.5 56.8C58.2 55.89 60.5 54.61 63.09 53.13C65.68 51.65 67.91 50.27 69.55 49.25L71.49 48.05C71.7223 47.875 71.974 47.7274 72.24 47.61V47.61Z" fill="#455A64"/>
<path d="M69.24 40.86C69.0125 41.0634 68.7683 41.2473 68.51 41.41C68.03 41.75 67.33 42.23 66.45 42.82C64.7 43.98 62.26 45.56 59.53 47.25C56.8 48.94 54.31 50.42 52.53 51.46C51.62 51.98 50.88 52.4 50.36 52.68C50.0977 52.8348 49.8235 52.9685 49.54 53.08C49.7731 52.8834 50.0242 52.7093 50.29 52.56L52.41 51.25L59.41 46.96L66.41 42.62L68.53 41.3C68.7522 41.1312 68.99 40.9839 69.24 40.86V40.86Z" fill="#455A64"/>
<path d="M332.36 240.21C332.31 240.26 331.57 239.52 330.13 238.29C329.41 237.68 328.52 236.94 327.44 236.15C326.222 235.255 324.938 234.453 323.6 233.75C322.828 233.354 322.025 233.019 321.2 232.75C320.335 232.434 319.421 232.272 318.5 232.27C318.045 232.27 317.597 232.376 317.19 232.58C316.792 232.787 316.475 233.121 316.29 233.53C316.096 233.978 316.004 234.463 316.02 234.95C316.029 235.476 316.096 235.999 316.22 236.51C316.488 237.594 316.877 238.644 317.38 239.64C317.907 240.699 318.498 241.724 319.15 242.71C321.951 246.847 325.458 250.459 329.51 253.38C330.468 254.066 331.47 254.687 332.51 255.24C333.492 255.777 334.532 256.2 335.61 256.5C336.116 256.641 336.636 256.725 337.16 256.75C337.645 256.778 338.129 256.7 338.58 256.52C339.003 256.352 339.355 256.045 339.58 255.65C339.794 255.249 339.913 254.804 339.93 254.35C339.96 253.427 339.824 252.506 339.53 251.63C339.258 250.796 338.924 249.984 338.53 249.2C337.863 247.843 337.097 246.536 336.24 245.29C335.48 244.19 334.78 243.29 334.18 242.54C333 241.07 332.28 240.3 332.33 240.25C332.38 240.2 332.55 240.4 332.92 240.75C333.29 241.1 333.8 241.62 334.43 242.33C335.205 243.189 335.936 244.087 336.62 245.02C337.536 246.26 338.352 247.571 339.06 248.94C339.467 249.748 339.818 250.584 340.11 251.44C340.446 252.404 340.605 253.42 340.58 254.44C340.57 255.002 340.426 255.554 340.16 256.05C339.873 256.581 339.415 257.001 338.86 257.24C338.31 257.47 337.716 257.576 337.12 257.55C336.536 257.532 335.956 257.448 335.39 257.3C334.255 256.991 333.158 256.555 332.12 256C331.036 255.405 329.994 254.737 329 254C324.846 251.037 321.264 247.343 318.43 243.1C317.756 242.089 317.152 241.033 316.62 239.94C316.102 238.884 315.702 237.774 315.43 236.63C315.294 236.064 315.227 235.483 315.23 234.9C315.214 234.303 315.337 233.711 315.59 233.17C315.847 232.621 316.28 232.174 316.82 231.9C317.325 231.654 317.879 231.527 318.44 231.53C319.446 231.54 320.441 231.73 321.38 232.09C322.227 232.404 323.05 232.782 323.84 233.22C325.186 233.966 326.471 234.819 327.68 235.77C328.75 236.61 329.62 237.38 330.31 238.04C331 238.7 331.51 239.23 331.84 239.6C332.17 239.97 332.38 240.19 332.36 240.21Z" fill="#455A64"/>
<path d="M322.77 242.61C322.83 242.61 322.54 243.61 322.16 245.39C321.97 246.29 321.76 247.39 321.59 248.67C321.396 250.118 321.316 251.579 321.35 253.04C321.369 253.882 321.456 254.722 321.61 255.55C321.755 256.43 322.057 257.276 322.5 258.05C322.726 258.429 323.034 258.754 323.4 259C323.765 259.237 324.195 259.356 324.63 259.34C325.106 259.327 325.573 259.211 326 259C326.453 258.768 326.876 258.483 327.26 258.15C328.078 257.442 328.812 256.644 329.45 255.77C330.124 254.849 330.736 253.884 331.28 252.88C333.552 248.616 335.026 243.974 335.63 239.18C335.76 238.048 335.817 236.909 335.8 235.77C335.784 234.688 335.646 233.611 335.39 232.56C335.26 232.069 335.079 231.593 334.85 231.14C334.638 230.721 334.338 230.352 333.97 230.06C333.626 229.791 333.206 229.637 332.77 229.62C332.329 229.612 331.892 229.701 331.49 229.88C330.683 230.255 329.948 230.77 329.32 231.4C328.718 231.993 328.163 232.631 327.66 233.31C326.776 234.475 325.987 235.709 325.3 237C324.7 238.14 324.24 239.16 323.88 240C323.16 241.69 322.83 242.65 322.77 242.63C322.779 242.38 322.829 242.133 322.92 241.9C323.05 241.43 323.26 240.75 323.57 239.9C323.88 239.05 324.31 237.99 324.88 236.81C325.527 235.465 326.287 234.178 327.15 232.96C327.653 232.245 328.219 231.575 328.84 230.96C329.512 230.251 330.309 229.672 331.19 229.25C331.683 229.027 332.219 228.914 332.76 228.92C333.345 228.935 333.911 229.13 334.38 229.48C334.836 229.834 335.211 230.28 335.48 230.79C335.747 231.291 335.955 231.821 336.1 232.37C336.384 233.475 336.539 234.609 336.56 235.75C336.594 236.929 336.544 238.109 336.41 239.28C335.827 244.187 334.317 248.937 331.96 253.28C331.395 254.324 330.757 255.327 330.05 256.28C329.374 257.199 328.592 258.034 327.72 258.77C327.287 259.133 326.814 259.446 326.31 259.7C325.796 259.967 325.229 260.117 324.65 260.14C324.068 260.154 323.496 259.99 323.01 259.67C322.564 259.359 322.189 258.957 321.91 258.49C321.436 257.637 321.121 256.705 320.98 255.74C320.831 254.878 320.757 254.005 320.76 253.13C320.753 251.636 320.877 250.143 321.13 248.67C321.31 247.565 321.547 246.471 321.84 245.39C322.08 244.5 322.31 243.82 322.47 243.39C322.521 243.114 322.623 242.85 322.77 242.61V242.61Z" fill="#455A64"/>
<path d="M326.05 238C326.05 238.07 325.05 238.33 323.36 238.95C322.5 239.26 321.46 239.66 320.27 240.19C318.937 240.788 317.653 241.49 316.43 242.29C315.72 242.745 315.051 243.26 314.43 243.83C313.757 244.412 313.198 245.114 312.78 245.9C312.576 246.29 312.46 246.72 312.44 247.16C312.431 247.599 312.561 248.029 312.81 248.39C313.069 248.774 313.411 249.096 313.81 249.33C314.246 249.59 314.708 249.801 315.19 249.96C316.225 250.277 317.291 250.478 318.37 250.56C319.509 250.635 320.651 250.635 321.79 250.56C324.197 250.418 326.584 250.047 328.92 249.45C331.261 248.866 333.541 248.063 335.73 247.05C336.764 246.565 337.766 246.014 338.73 245.4C339.642 244.834 340.485 244.163 341.24 243.4C341.596 243.036 341.905 242.63 342.16 242.19C342.408 241.793 342.565 241.345 342.62 240.88C342.666 240.448 342.578 240.012 342.37 239.63C342.145 239.236 341.838 238.895 341.47 238.63C340.723 238.153 339.897 237.815 339.03 237.63C338.212 237.428 337.38 237.291 336.54 237.22C335.082 237.106 333.618 237.106 332.16 237.22C330.87 237.32 329.76 237.46 328.85 237.59C327.05 237.87 326.06 238.1 326.04 238.03C326.259 237.911 326.495 237.827 326.74 237.78C327.2 237.64 327.89 237.46 328.8 237.27C329.71 237.08 330.8 236.9 332.12 236.76C333.605 236.602 335.1 236.569 336.59 236.66C337.463 236.712 338.329 236.84 339.18 237.04C340.138 237.234 341.051 237.607 341.87 238.14C342.322 238.439 342.701 238.835 342.98 239.3C343.277 239.804 343.406 240.388 343.35 240.97C343.299 241.546 343.118 242.104 342.82 242.6C342.539 243.086 342.203 243.539 341.82 243.95C341.028 244.777 340.142 245.509 339.18 246.13C338.193 246.775 337.164 247.353 336.1 247.86C333.852 248.907 331.508 249.734 329.1 250.33C326.713 250.939 324.271 251.311 321.81 251.44C320.634 251.505 319.454 251.485 318.28 251.38C317.141 251.29 316.016 251.065 314.93 250.71C314.39 250.535 313.874 250.297 313.39 250C312.898 249.698 312.476 249.296 312.15 248.82C311.833 248.333 311.672 247.761 311.69 247.18C311.715 246.634 311.862 246.101 312.12 245.62C312.592 244.768 313.215 244.008 313.96 243.38C314.62 242.804 315.326 242.283 316.07 241.82C317.345 241.043 318.683 240.374 320.07 239.82C321.107 239.393 322.165 239.019 323.24 238.7C324.12 238.44 324.82 238.27 325.29 238.17C325.533 238.073 325.789 238.015 326.05 238V238Z" fill="#455A64"/>
<path d="M331.09 243.77C331.219 244.284 331.192 244.825 331.013 245.324C330.834 245.823 330.511 246.258 330.086 246.573C329.66 246.889 329.15 247.071 328.62 247.097C328.091 247.123 327.566 246.991 327.111 246.718C326.657 246.445 326.293 246.044 326.067 245.565C325.84 245.086 325.761 244.55 325.839 244.026C325.917 243.501 326.149 243.012 326.505 242.619C326.861 242.227 327.326 241.949 327.84 241.82C328.529 241.65 329.258 241.76 329.867 242.126C330.476 242.491 330.915 243.082 331.09 243.77V243.77Z" fill="#455A64"/>
<path d="M385.72 197.86L385.42 197.72L384.55 197.28L381.2 195.54L368.89 189.07H369L331.08 203.56L330.74 203.69L330.84 203.34L332 199.15C334.65 189.59 337.16 180.54 339.36 172.58V172.52L360.36 156.78L366.36 152.34L367.95 151.17L368.36 150.88C368.447 150.807 368.497 150.777 368.51 150.79L368.38 150.9L367.98 151.22L366.42 152.42L360.5 156.93L339.56 172.78L339.62 172.69C337.42 180.69 334.93 189.69 332.29 199.28C331.89 200.71 331.5 202.14 331.13 203.47L330.89 203.25L368.89 188.86H368.95L381.2 195.43L384.51 197.22L385.37 197.7L385.72 197.86Z" fill="#0066CC"/>
<path d="M335.95 203.1L333.68 203.77L332.95 206.02L331.61 204.07H329.24L330.68 202.19L329.95 199.94L332.18 200.73L334.09 199.34L334.03 201.71L335.95 203.1Z" fill="#0066CC"/>
<path d="M342.5 171.85L341.07 172.37L340.68 173.85L339.74 172.65L338.21 172.74L339.07 171.47L338.51 170.05L339.98 170.47L341.16 169.5L341.21 171.03L342.5 171.85Z" fill="#0066CC"/>
<path d="M371.21 149.82L370.17 151.39L370.86 153.13L369.05 152.62L367.61 153.82L367.53 151.94L365.95 150.94L367.71 150.29L368.17 148.47L369.34 149.94L371.21 149.82Z" fill="#0066CC"/>
<path d="M388.02 195.88L386.97 197.45L387.67 199.19L385.86 198.68L384.41 199.88L384.34 198L382.75 197L384.51 196.35L384.98 194.53L386.14 196L388.02 195.88Z" fill="#0066CC"/>
<path d="M370.38 188.17L369.71 189.17L370.16 190.28L369 189.95L368.08 190.72L368.04 189.52L367.02 188.88L368.15 188.46L368.44 187.3L369.19 188.25L370.38 188.17Z" fill="#0066CC"/>
<path d="M272.47 29.2279C274.178 18.7626 267.079 8.89398 256.614 7.18583C246.148 5.47768 236.28 12.5768 234.571 23.0422C232.863 33.5076 239.962 43.3762 250.428 45.0843C260.893 46.7925 270.762 39.6933 272.47 29.2279Z" fill="#0066CC"/>
<g opacity="0.3">
<path opacity="0.3" d="M251 32.14C251 32.7591 250.816 33.3642 250.472 33.8789C250.129 34.3937 249.64 34.7949 249.068 35.0318C248.496 35.2687 247.867 35.3306 247.259 35.2099C246.652 35.0891 246.094 34.791 245.657 34.3532C245.219 33.9155 244.921 33.3578 244.8 32.7506C244.679 32.1435 244.741 31.5141 244.978 30.9422C245.215 30.3703 245.616 29.8814 246.131 29.5375C246.646 29.1936 247.251 29.01 247.87 29.01C248.7 29.01 249.496 29.3398 250.083 29.9268C250.67 30.5138 251 31.3099 251 32.14V32.14Z" fill="white"/>
</g>
<g opacity="0.3">
<path opacity="0.3" d="M246.6 23.1C246.6 23.46 246.493 23.8119 246.293 24.1112C246.093 24.4105 245.809 24.6437 245.476 24.7815C245.144 24.9192 244.778 24.9553 244.425 24.8851C244.072 24.8148 243.748 24.6415 243.493 24.387C243.239 24.1324 243.065 23.8081 242.995 23.4551C242.925 23.102 242.961 22.7361 243.099 22.4035C243.236 22.071 243.47 21.7867 243.769 21.5868C244.068 21.3868 244.42 21.28 244.78 21.28C245.263 21.28 245.726 21.4718 246.067 21.8131C246.408 22.1544 246.6 22.6173 246.6 23.1V23.1Z" fill="white"/>
</g>
<path d="M234.91 30.82C235 31.15 218.48 47 222.74 50.38C227 53.76 244.91 45.09 260.18 32.76C275.45 20.43 289.39 5.45002 285.57 1.49002C281.75 -2.46998 262.68 9.26002 262.68 9.26002L265 10.71C265 10.71 276.53 3.31002 280.18 6.18002C283.83 9.05002 273.43 20.28 258.75 31C244.07 41.72 229.88 49.24 227.68 46.3C225.48 43.36 235.87 33.57 235.87 33.57L234.91 30.82Z" fill="#0066CC"/>
<g opacity="0.3">
<path opacity="0.3" d="M234.91 30.82C235 31.15 218.48 47 222.74 50.38C227 53.76 244.91 45.09 260.18 32.76C275.45 20.43 289.39 5.45002 285.57 1.49002C281.75 -2.46998 262.68 9.26002 262.68 9.26002L265 10.71C265 10.71 276.53 3.31002 280.18 6.18002C283.83 9.05002 273.43 20.28 258.75 31C244.07 41.72 229.88 49.24 227.68 46.3C225.48 43.36 235.87 33.57 235.87 33.57L234.91 30.82Z" fill="black"/>
</g>
<g opacity="0.3">
<path opacity="0.3" d="M243 12.62C243.15 12.81 241.85 13.91 240.38 16.13C238.426 18.9756 237.349 22.3307 237.279 25.7817C237.21 29.2326 238.152 32.6283 239.99 35.55C241.38 37.82 242.63 38.98 242.47 39.16C242.31 39.34 240.83 38.4 239.12 36.16C238.13 34.8274 237.345 33.3545 236.79 31.79C235.372 27.8999 235.457 23.6203 237.03 19.79C237.645 18.2497 238.488 16.8104 239.53 15.52C241.29 13.32 242.87 12.49 243 12.62Z" fill="white"/>
</g>
<path d="M282.58 43.07C282.632 40.8652 283.337 38.7254 284.605 36.9211C285.873 35.1169 287.648 33.7293 289.705 32.9338C291.762 32.1383 294.009 31.9707 296.161 32.4522C298.313 32.9336 300.274 34.0425 301.796 35.6386C303.318 37.2347 304.333 39.2463 304.711 41.419C305.09 43.5917 304.816 45.8278 303.923 47.8447C303.031 49.8615 301.561 51.5684 299.698 52.7495C297.836 53.9306 295.665 54.5328 293.46 54.48C290.504 54.4093 287.698 53.1675 285.657 51.0278C283.617 48.8882 282.51 46.0257 282.58 43.07V43.07Z" fill="#0066CC"/>
<g opacity="0.4">
<path opacity="0.4" d="M297.36 39.07C297.368 38.7097 297.483 38.36 297.69 38.065C297.897 37.7701 298.187 37.5433 298.523 37.4132C298.859 37.2832 299.226 37.2559 299.578 37.3347C299.929 37.4135 300.25 37.595 300.498 37.856C300.746 38.117 300.912 38.4459 300.973 38.801C301.034 39.1561 300.989 39.5214 300.842 39.8506C300.696 40.1798 300.455 40.4581 300.15 40.6503C299.845 40.8424 299.49 40.9398 299.13 40.93C298.892 40.9248 298.656 40.8725 298.438 40.7761C298.22 40.6796 298.023 40.541 297.858 40.3681C297.694 40.1953 297.565 39.9916 297.48 39.7688C297.394 39.546 297.353 39.3085 297.36 39.07Z" fill="black"/>
</g>
<g opacity="0.4">
<path opacity="0.4" d="M301 43.3101C301.006 43.0993 301.075 42.8952 301.198 42.7239C301.321 42.5526 301.492 42.4218 301.69 42.3483C301.887 42.2748 302.102 42.2618 302.307 42.3111C302.512 42.3605 302.698 42.4698 302.841 42.6251C302.983 42.7805 303.076 42.9748 303.108 43.1833C303.139 43.3918 303.108 43.6049 303.018 43.7954C302.927 43.986 302.782 44.1453 302.601 44.253C302.42 44.3607 302.21 44.4119 302 44.4001C301.725 44.3821 301.468 44.2587 301.281 44.0557C301.095 43.8526 300.994 43.5856 301 43.3101V43.3101Z" fill="black"/>
</g>
<g opacity="0.4">
<path opacity="0.4" d="M299.57 46.5601C299.675 46.5627 299.774 46.606 299.847 46.6807C299.919 46.7554 299.96 46.8557 299.96 46.9601C299.959 47.0113 299.948 47.0617 299.927 47.1086C299.906 47.1554 299.876 47.1977 299.839 47.2329C299.802 47.2682 299.758 47.2959 299.71 47.3142C299.662 47.3326 299.611 47.3414 299.56 47.3401C299.509 47.3401 299.457 47.3297 299.41 47.3093C299.363 47.289 299.32 47.2592 299.284 47.2218C299.249 47.1844 299.221 47.1401 299.203 47.0916C299.185 47.0432 299.177 46.9916 299.18 46.9401C299.183 46.8384 299.225 46.7417 299.298 46.6707C299.371 46.5997 299.469 46.56 299.57 46.5601V46.5601Z" fill="black"/>
</g>
<path d="M328.62 126.25C328.52 126.25 328.45 112.13 328.45 94.7201C328.45 77.3101 328.52 63.1901 328.62 63.1901C328.72 63.1901 328.79 77.3001 328.79 94.7201C328.79 112.14 328.71 126.25 328.62 126.25Z" fill="#263238"/>
<path d="M330.5 63.73C329.696 62.5653 328.981 61.3419 328.36 60.07H328.66V60.15C328.144 61.5017 327.533 62.8151 326.83 64.08C327.224 62.6872 327.733 61.3293 328.35 60.02V59.94L328.49 59.62L328.65 59.92C329.368 61.1384 329.986 62.4125 330.5 63.73Z" fill="#263238"/>
<path d="M328.27 55.74C328.21 55.81 327.69 55.47 327.27 54.84C326.85 54.21 326.75 53.6 326.84 53.58C326.93 53.56 327.17 54.08 327.55 54.66C327.93 55.24 328.33 55.67 328.27 55.74Z" fill="#263238"/>
<path d="M327.28 57.56C327.47 56.7848 327.738 56.0309 328.08 55.31C328.308 54.5461 328.616 53.8087 329 53.11C328.939 53.9139 328.732 54.6999 328.39 55.43C328.154 56.2022 327.778 56.9242 327.28 57.56V57.56Z" fill="#263238"/>
<path d="M324.1 71.4901C324.328 70.8543 324.522 70.2067 324.68 69.55C324.714 68.8838 324.714 68.2163 324.68 67.55C325.035 68.1822 325.139 68.9249 324.97 69.6301C324.921 70.3366 324.611 70.9997 324.1 71.4901Z" fill="#263238"/>
<path d="M324.72 68.8601C324.72 68.8601 324.64 69.1301 324.24 69.2301C324.003 69.2804 323.756 69.2374 323.55 69.1101C323.428 69.0225 323.328 68.9086 323.256 68.777C323.184 68.6453 323.143 68.4991 323.135 68.3493C323.127 68.1995 323.154 68.0498 323.212 67.9115C323.27 67.7731 323.358 67.6496 323.47 67.5501C323.668 67.4097 323.909 67.3457 324.15 67.3701C324.56 67.3701 324.7 67.6701 324.66 67.6901C324.62 67.7101 324.45 67.5901 324.14 67.6101C324.047 67.6084 323.954 67.6262 323.868 67.6623C323.783 67.6985 323.705 67.7521 323.641 67.8199C323.577 67.8877 323.528 67.968 323.497 68.0559C323.466 68.1437 323.453 68.2371 323.46 68.3301C323.464 68.4234 323.486 68.515 323.527 68.5993C323.567 68.6837 323.624 68.759 323.694 68.8207C323.764 68.8824 323.846 68.9292 323.935 68.9584C324.023 68.9875 324.117 68.9983 324.21 68.9901C324.52 69.0001 324.68 68.8201 324.72 68.8601Z" fill="#263238"/>
<path d="M377.71 121.77C377.71 121.86 365.63 121.94 350.71 121.94C335.79 121.94 323.71 121.86 323.71 121.77C323.71 121.68 335.78 121.6 350.71 121.6C365.64 121.6 377.71 121.68 377.71 121.77Z" fill="#263238"/>
<path d="M378.26 121.7C377.477 121.578 376.715 121.342 376 121C375.257 120.766 374.55 120.43 373.9 120C374.671 120.125 375.419 120.365 376.12 120.71C376.878 120.934 377.599 121.268 378.26 121.7V121.7Z" fill="#263238"/>
<path d="M378.85 121.9C377.711 122.548 376.464 122.985 375.17 123.19C375.721 122.83 376.325 122.56 376.96 122.39C377.557 122.118 378.196 121.952 378.85 121.9V121.9Z" fill="#263238"/>
<path d="M326.08 123.48C326.267 123.609 326.426 123.775 326.546 123.967C326.667 124.16 326.746 124.375 326.78 124.6C326.9 125.089 326.861 125.604 326.67 126.07C326.56 126.358 326.373 126.61 326.13 126.8C325.981 126.896 325.808 126.948 325.63 126.948C325.453 126.948 325.279 126.896 325.13 126.8C324.876 126.612 324.671 126.363 324.535 126.077C324.399 125.791 324.336 125.476 324.35 125.16C324.343 124.904 324.393 124.65 324.497 124.417C324.601 124.183 324.756 123.976 324.95 123.81C325.08 123.698 325.231 123.612 325.394 123.559C325.557 123.506 325.729 123.486 325.9 123.5C326.14 123.5 326.25 123.61 326.24 123.62C326.23 123.63 326.11 123.62 325.9 123.62C325.604 123.647 325.325 123.774 325.11 123.98C324.956 124.129 324.836 124.311 324.758 124.511C324.681 124.711 324.647 124.926 324.66 125.14C324.654 125.401 324.709 125.659 324.82 125.896C324.931 126.132 325.095 126.339 325.3 126.5C325.399 126.563 325.513 126.597 325.63 126.597C325.747 126.597 325.862 126.563 325.96 126.5C326.158 126.349 326.313 126.149 326.41 125.92C326.586 125.511 326.641 125.06 326.57 124.62C326.466 124.217 326.301 123.833 326.08 123.48V123.48Z" fill="#263238"/>
<path d="M370 124.19C370 124.19 370.19 124.08 370.45 124.3C370.527 124.367 370.588 124.45 370.627 124.544C370.667 124.637 370.685 124.738 370.68 124.84C370.655 125.1 370.542 125.343 370.36 125.53C369.98 125.95 369.28 126.11 368.96 126.62C368.887 126.753 368.848 126.903 368.848 127.055C368.848 127.207 368.887 127.357 368.96 127.49C369.043 127.63 369.165 127.742 369.31 127.815C369.456 127.888 369.619 127.917 369.78 127.9C369.943 127.886 370.098 127.824 370.225 127.72C370.352 127.617 370.444 127.477 370.49 127.32C370.538 127.174 370.548 127.018 370.518 126.868C370.489 126.717 370.42 126.577 370.32 126.46C370.118 126.226 369.874 126.033 369.6 125.89C369.451 125.835 369.316 125.746 369.206 125.632C369.095 125.518 369.011 125.381 368.96 125.23C368.931 125.1 368.931 124.966 368.96 124.836C368.989 124.706 369.048 124.584 369.13 124.48C369.249 124.33 369.404 124.213 369.58 124.14C369.87 124.04 370.04 124.06 370.05 124.08C370.06 124.1 369.89 124.08 369.64 124.26C369.495 124.339 369.371 124.452 369.28 124.59C369.223 124.674 369.185 124.769 369.169 124.87C369.154 124.97 369.161 125.073 369.19 125.17C369.29 125.6 370.09 125.66 370.56 126.27C370.695 126.427 370.788 126.616 370.83 126.819C370.872 127.022 370.862 127.232 370.8 127.43C370.732 127.648 370.6 127.84 370.422 127.982C370.244 128.125 370.027 128.211 369.8 128.23C369.576 128.254 369.349 128.213 369.147 128.112C368.945 128.011 368.776 127.854 368.66 127.66C368.557 127.477 368.502 127.27 368.502 127.06C368.502 126.85 368.557 126.643 368.66 126.46C368.864 126.174 369.14 125.946 369.46 125.8C369.706 125.68 369.938 125.533 370.15 125.36C370.309 125.219 370.415 125.029 370.45 124.82C370.458 124.743 370.451 124.666 370.428 124.592C370.406 124.518 370.369 124.449 370.32 124.39C370.2 124.19 370 124.22 370 124.19Z" fill="#263238"/>
<path d="M369.86 122.93C369.63 121.943 369.63 120.917 369.86 119.93C370.09 120.917 370.09 121.943 369.86 122.93V122.93Z" fill="#263238"/>
<path d="M384.29 121.83C383.995 121.935 383.683 121.983 383.37 121.97L382.37 122.03C382.296 122.055 382.215 122.055 382.14 122.03C382.092 121.999 382.054 121.953 382.033 121.899C382.011 121.845 382.007 121.786 382.02 121.73C382.055 121.604 382.128 121.492 382.23 121.41L382.67 120.95C382.97 120.717 383.167 120.376 383.22 120C383.229 119.865 383.193 119.73 383.117 119.618C383.04 119.506 382.929 119.422 382.8 119.38C382.597 119.355 382.391 119.394 382.21 119.49C382.06 119.55 381.98 119.59 381.96 119.57C381.94 119.55 382.01 119.48 382.14 119.38C382.334 119.213 382.585 119.128 382.84 119.14C383.039 119.18 383.218 119.289 383.344 119.449C383.471 119.608 383.537 119.807 383.53 120.01C383.493 120.464 383.277 120.885 382.93 121.18L382.47 121.63C382.39 121.7 382.33 121.77 382.33 121.8H382.39H383.39C383.69 121.76 383.994 121.77 384.29 121.83V121.83Z" fill="#263238"/>
<path d="M335.8 121.77C335.8 121.77 335.8 121.43 335.8 120.84C335.8 120.25 335.8 119.38 335.75 118.37C335.75 116.27 335.69 113.37 335.68 110.05L335.84 110.22H332.71L332.88 110.05V113.52C332.88 114.63 332.88 115.69 332.88 116.69C332.88 118.69 332.88 120.39 332.83 121.76L332.73 121.66L335.01 121.71C335.55 121.71 335.85 121.71 335.86 121.76C335.597 121.777 335.333 121.777 335.07 121.76L332.73 121.81H332.63V121.71C332.63 120.34 332.63 118.62 332.63 116.64C332.63 115.64 332.63 114.58 332.63 113.47V110L332.8 109.83H336V109.99C336 113.38 336 116.33 335.92 118.42C335.92 119.42 335.92 120.24 335.92 120.86C335.906 121.166 335.866 121.471 335.8 121.77V121.77Z" fill="#263238"/>
<path d="M365.65 121.77C365.639 121.65 365.639 121.53 365.65 121.41C365.65 121.15 365.65 120.83 365.65 120.41C365.65 119.51 365.65 118.29 365.6 116.78C365.6 113.72 365.54 109.48 365.53 104.67L365.7 104.83H362.56L362.73 104.67V107.31C362.73 108.18 362.73 109.03 362.73 109.86C362.73 111.53 362.73 113.1 362.73 114.57C362.73 117.47 362.68 119.93 362.67 121.73L362.58 121.64H364.87H365.49H365.72C365.457 121.658 365.193 121.658 364.93 121.64L362.58 121.69H362.49V121.6C362.49 119.8 362.49 117.34 362.43 114.44C362.43 112.97 362.43 111.44 362.43 109.73C362.43 108.9 362.43 108.05 362.43 107.18V104.54L362.6 104.37H365.9V104.54C365.9 109.42 365.9 113.72 365.83 116.77C365.83 118.26 365.83 119.47 365.78 120.36C365.78 120.74 365.78 121.06 365.78 121.36C365.78 121.66 365.65 121.78 365.65 121.77Z" fill="#263238"/>
<path d="M343.35 121.77C343.338 121.624 343.338 121.476 343.35 121.33C343.35 121.01 343.35 120.6 343.35 120.09C343.35 119 343.35 117.47 343.3 115.57C343.3 111.74 343.3 106.45 343.23 100.48L343.4 100.65H340.26C340.6 100.31 340.35 100.56 340.43 100.49V103.87C340.43 104.98 340.43 106.06 340.43 107.12C340.43 109.23 340.43 111.22 340.43 113.05C340.43 116.69 340.38 119.69 340.36 121.77L340.28 121.69H342.59H343.2H343.42H343.23H342.63H340.28H340.2V121.61C340.2 119.53 340.2 116.53 340.14 112.89C340.14 111.06 340.14 109.07 340.14 106.96C340.14 105.9 340.14 104.82 340.14 103.71V100.33C340.22 100.25 339.97 100.49 340.31 100.15H343.61V100.31C343.61 106.31 343.56 111.66 343.54 115.52C343.54 117.4 343.54 118.92 343.49 120C343.49 120.5 343.49 120.9 343.49 121.2C343.49 121.5 343.35 121.78 343.35 121.77Z" fill="#263238"/>
<path d="M350.73 121.7C350.726 121.643 350.726 121.587 350.73 121.53V121C350.73 120.54 350.73 119.9 350.73 119.09C350.73 117.42 350.73 115.03 350.68 112.09C350.68 106.15 350.63 97.94 350.6 88.72L350.77 88.89H347.6L347.76 88.73V99.3C347.76 102.64 347.76 105.78 347.76 108.64C347.76 114.32 347.7 118.87 347.68 121.64L347.62 121.58H349.93H350.75C350.75 121.58 350.69 121.58 350.56 121.58H350H347.65H347.58V121.51C347.58 118.69 347.58 114.14 347.51 108.51C347.51 105.65 347.51 102.51 347.51 99.17C347.51 97.49 347.51 95.77 347.51 94V88.6001C347.58 88.5201 347.34 88.76 347.68 88.42H350.98V88.59C350.98 97.85 350.98 106.11 350.91 112.08C350.91 115.02 350.91 117.4 350.86 119.08C350.86 119.88 350.86 120.51 350.86 120.96V121.44C350.74 121.66 350.74 121.71 350.73 121.7Z" fill="#263238"/>
<path d="M358.3 121.7C358.3 121.7 358.3 121.6 358.3 121.41C358.3 121.22 358.3 120.92 358.3 120.56C358.3 119.81 358.3 118.72 358.3 117.33C358.3 114.52 358.3 110.46 358.25 105.45C358.25 95.4501 358.25 81.5201 358.18 66.0201L358.35 66.1901H355.21C355.54 65.8601 355.31 66.1101 355.38 66.0401V75.6101C355.38 78.7301 355.38 81.7701 355.38 84.7001C355.38 90.5701 355.38 96.0101 355.38 100.88C355.38 110.58 355.31 117.95 355.29 121.7H357.64H358.43C358.43 121.7 358.37 121.7 358.24 121.7H357.67H355.29H355.24V121.64C355.24 117.89 355.19 110.52 355.16 100.82C355.16 95.9501 355.16 90.5101 355.16 84.6401C355.16 81.7101 355.16 78.6401 355.16 75.5501V66.0001C355.24 65.9201 354.99 66.1501 355.33 65.8101H358.63V66.0001C358.63 81.5501 358.63 95.4801 358.56 105.55C358.56 110.55 358.56 114.55 358.51 117.39C358.51 118.77 358.51 119.84 358.51 120.59C358.51 120.94 358.51 121.21 358.51 121.41C358.51 121.61 358.3 121.71 358.3 121.7Z" fill="#263238"/>
<path d="M22.6001 125L25.2701 171.83L103.62 167.36L22.6001 125ZM35.6901 143.17L69.3901 161.17L36.8201 163L35.6901 143.17Z" fill="#0066CC"/>
<path d="M30.3801 129.09C30.1304 130.122 29.7114 131.105 29.1402 132C28.7185 132.981 28.1336 133.884 27.4102 134.67C27.655 133.627 28.0742 132.633 28.6502 131.73C29.0772 130.761 29.6618 129.869 30.3801 129.09V129.09Z" fill="#263238"/>
<path d="M42.4002 135.3C42.15 136.319 41.7308 137.289 41.1602 138.17C40.7463 139.127 40.1675 140.004 39.4502 140.76C39.6922 139.74 40.1083 138.769 40.6802 137.89C41.0922 136.93 41.675 136.052 42.4002 135.3V135.3Z" fill="#263238"/>
<path d="M54.4101 141.51C54.0615 142.493 53.5474 143.41 52.8901 144.22C52.3767 145.136 51.6987 145.95 50.8901 146.62C51.2374 145.633 51.7515 144.713 52.4101 143.9C52.929 142.99 53.6063 142.181 54.4101 141.51V141.51Z" fill="#263238"/>
<path d="M66.2302 148C65.893 148.991 65.3779 149.913 64.7102 150.72C64.1849 151.628 63.5085 152.44 62.7102 153.12C63.0474 152.129 63.5625 151.207 64.2302 150.4C64.7555 149.492 65.4319 148.68 66.2302 148V148Z" fill="#263238"/>
<path d="M78.5701 154.33C78.2775 155.365 77.8108 156.342 77.1901 157.22C76.7263 158.183 76.1044 159.062 75.3501 159.82C76.0926 157.815 77.1826 155.957 78.5701 154.33V154.33Z" fill="#263238"/>
<path d="M91.3802 161C91.144 161.98 90.7305 162.909 90.1602 163.74C89.744 164.657 89.1684 165.494 88.4602 166.21C88.7018 165.227 89.1184 164.295 89.6902 163.46C90.0961 162.542 90.6692 161.708 91.3802 161V161Z" fill="#263238"/>
<path d="M34.1302 131.05C34.2602 131.13 34.0402 131.81 33.6302 132.59C33.2202 133.37 32.7802 133.92 32.6302 133.85C32.4802 133.78 32.7202 133.09 33.1302 132.32C33.5402 131.55 34.0002 131 34.1302 131.05Z" fill="#263238"/>
<path d="M38.0601 133C38.2001 133.07 37.9701 133.76 37.5601 134.53C37.1501 135.3 36.7201 135.87 36.5601 135.8C36.4001 135.73 36.6601 135.04 37.0601 134.26C37.4601 133.48 37.9301 132.94 38.0601 133Z" fill="#263238"/>
<path d="M46.8301 137.65C46.9601 137.73 46.7401 138.41 46.3301 139.19C45.9201 139.97 45.4801 140.53 45.3301 140.45C45.1801 140.37 45.4201 139.69 45.8301 138.92C46.2401 138.15 46.7001 137.58 46.8301 137.65Z" fill="#263238"/>
<path d="M50.7701 139.62C50.9001 139.69 50.6801 140.38 50.2701 141.15C49.8601 141.92 49.4201 142.49 49.2701 142.42C49.1201 142.35 49.3601 141.66 49.7701 140.88C50.1801 140.1 50.6301 139.55 50.7701 139.62Z" fill="#263238"/>
<path d="M58.7 144.06C58.84 144.13 58.61 144.82 58.2 145.59C57.79 146.36 57.36 146.93 57.2 146.86C57.04 146.79 57.29 146.1 57.7 145.32C58.11 144.54 58.57 144 58.7 144.06Z" fill="#263238"/>
<path d="M62.46 146C62.6 146.07 62.37 146.76 61.96 147.53C61.55 148.3 61.12 148.87 60.96 148.8C60.8 148.73 61.05 148.03 61.46 147.26C61.87 146.49 62.33 146 62.46 146Z" fill="#263238"/>
<path d="M70.5701 150.24C70.7001 150.32 70.4801 151 70.0701 151.78C69.6601 152.56 69.2301 153.11 69.0701 153.04C68.9101 152.97 69.1601 152.28 69.5701 151.51C69.9801 150.74 70.4401 150.17 70.5701 150.24Z" fill="#263238"/>
<path d="M74.93 152.55C75.06 152.63 74.84 153.31 74.43 154.09C74.02 154.87 73.58 155.43 73.43 155.35C73.28 155.27 73.52 154.59 73.93 153.82C74.34 153.05 74.8 152.48 74.93 152.55Z" fill="#263238"/>
<path d="M82.7701 156.68C82.9001 156.75 82.6801 157.44 82.2701 158.21C81.8601 158.98 81.4201 159.55 81.2701 159.48C81.1201 159.41 81.3601 158.72 81.7701 157.94C82.1801 157.16 82.6301 156.61 82.7701 156.68Z" fill="#263238"/>
<path d="M87.2901 159C87.4201 159.08 87.2001 159.77 86.7901 160.54C86.3801 161.31 85.9401 161.88 85.7901 161.8C85.6401 161.72 85.8801 161.04 86.2901 160.27C86.7001 159.5 87.1601 158.93 87.2901 159Z" fill="#263238"/>
<path d="M156.6 59.84C156.6 59.84 156.6 59.78 156.6 59.67C156.6 59.56 156.6 59.38 156.6 59.17C156.6 58.73 156.6 58.09 156.6 57.26C156.6 55.58 156.6 53.14 156.6 50.04C156.6 43.84 156.55 35.04 156.52 24.4L156.67 24.54H121.23L121.39 24.37C121.39 37.37 121.39 49.51 121.39 59.81L121.25 59.66L146.89 59.7401H154.11H154.17H146.99L121.25 59.81H121V59.66C121 49.36 121 37.2 121 24.22V24.05H121.17H156.61H156.75V24.2C156.75 34.84 156.7 43.71 156.68 49.94C156.68 53.02 156.68 55.45 156.68 57.12C156.68 57.94 156.68 58.56 156.68 59V59.64L156.6 59.84Z" fill="#0066CC"/>
<path d="M156.6 59.8401C156.686 59.7706 156.776 59.7071 156.87 59.6501L157.68 59.1301L160.82 57.1301L172.36 50.0001L172.3 50.1101C172.3 40.8601 172.3 28.6101 172.3 15.2001L172.46 15.3701H172.37H137.43H137.49L125.56 22.0001L122.3 23.8201L121.45 24.2801L121.16 24.4301C121.247 24.3656 121.337 24.3055 121.43 24.2501L122.27 23.7501L125.49 21.8801L137.33 15.0801H172.27H172.53V15.2501C172.53 28.6601 172.53 40.9101 172.53 50.1601V50.2301H172.47L160.87 57.3201L157.7 59.2401L156.87 59.7301L156.6 59.8401Z" fill="#0066CC"/>
<path d="M172.42 15.16C172.47 15.24 168.97 17.37 164.6 19.92C160.23 22.47 156.6 24.48 156.6 24.4C156.6 24.32 160.05 22.19 164.43 19.63C168.81 17.07 172.38 15.08 172.42 15.16Z" fill="#0066CC"/>
<path d="M122.84 58.38C122.84 58.46 122.54 58.75 122.08 59.01C121.62 59.27 121.2 59.43 121.16 59.35C121.12 59.27 121.45 58.99 121.91 58.72C122.37 58.45 122.79 58.3 122.84 58.38Z" fill="#0066CC"/>
<path d="M126.2 56.4501C126.25 56.5301 125.91 56.8201 125.44 57.0801C124.97 57.3401 124.56 57.5001 124.52 57.4201C124.48 57.3401 124.81 57.0601 125.28 56.7901C125.75 56.5201 126.15 56.3701 126.2 56.4501Z" fill="#0066CC"/>
<path d="M129.56 54.52C129.61 54.6 129.27 54.89 128.81 55.15C128.35 55.41 127.93 55.57 127.88 55.49C127.83 55.41 128.17 55.13 128.64 54.86C129.11 54.59 129.52 54.44 129.56 54.52Z" fill="#0066CC"/>
<path d="M132.93 52.59C132.93 52.67 132.63 52.95 132.17 53.22C131.71 53.49 131.29 53.64 131.24 53.56C131.19 53.48 131.54 53.2 132 52.93C132.46 52.66 132.88 52.51 132.93 52.59Z" fill="#0066CC"/>
<path d="M136.29 50.66C136.29 50.74 136 51.02 135.53 51.29C135.06 51.56 134.65 51.71 134.61 51.63C134.57 51.55 134.9 51.27 135.36 51C135.82 50.73 136.24 50.58 136.29 50.66Z" fill="#0066CC"/>
<path d="M137.14 47.2701C137.23 47.2701 137.3 47.7001 137.3 48.2701C137.3 48.8401 137.22 49.2701 137.12 49.2701C137.02 49.2701 136.96 48.8401 136.96 48.2701C136.96 47.7001 137.05 47.2601 137.14 47.2701Z" fill="#0066CC"/>
<path d="M137.17 43.39C137.26 43.39 137.34 43.82 137.33 44.39C137.32 44.96 137.25 45.39 137.16 45.39C137.07 45.39 136.99 44.95 136.99 44.39C136.99 43.83 137.08 43.39 137.17 43.39Z" fill="#0066CC"/>
<path d="M137.2 39.51C137.29 39.51 137.37 39.95 137.36 40.51C137.35 41.07 137.28 41.51 137.19 41.51C137.1 41.51 137.02 41.07 137.02 40.51C137.02 39.95 137.11 39.51 137.2 39.51Z" fill="#0066CC"/>
<path d="M137.23 35.63C137.32 35.63 137.4 36.07 137.39 36.63C137.38 37.19 137.31 37.63 137.22 37.63C137.13 37.63 137.05 37.2 137.06 36.63C137.07 36.06 137.14 35.63 137.23 35.63Z" fill="#0066CC"/>
<path d="M137.26 31.76C137.35 31.76 137.43 32.19 137.42 32.76C137.41 33.33 137.34 33.76 137.25 33.76C137.16 33.76 137.08 33.33 137.09 32.76C137.1 32.19 137.17 31.76 137.26 31.76Z" fill="#0066CC"/>
<path d="M137.29 27.88C137.39 27.88 137.46 28.31 137.45 28.88C137.44 29.45 137.37 29.88 137.28 29.88C137.19 29.88 137.11 29.44 137.12 28.88C137.13 28.32 137.2 27.88 137.29 27.88Z" fill="#0066CC"/>
<path d="M137.32 24C137.42 24 137.49 24.44 137.48 25C137.47 25.56 137.4 26 137.31 26C137.22 26 137.14 25.56 137.15 25C137.16 24.44 137.23 24 137.32 24Z" fill="#0066CC"/>
<path d="M137.35 20.12C137.45 20.12 137.52 20.56 137.51 21.12C137.5 21.68 137.43 22.12 137.34 22.12C137.25 22.12 137.17 21.69 137.18 21.12C137.19 20.55 137.26 20.12 137.35 20.12Z" fill="#0066CC"/>
<path d="M137.38 16.25C137.48 16.25 137.55 16.68 137.54 17.25C137.53 17.82 137.46 18.25 137.37 18.25C137.28 18.25 137.2 17.82 137.21 17.25C137.22 16.68 137.29 16.25 137.38 16.25Z" fill="#0066CC"/>
<path d="M170.49 50.0801C170.49 50.0001 170.92 49.9301 171.49 49.9301C172.06 49.9301 172.49 50.0001 172.49 50.0801C172.49 50.1601 172.06 50.2401 171.49 50.2401C170.92 50.2401 170.49 50.1701 170.49 50.0801Z" fill="#0066CC"/>
<path d="M166.61 50.0801C166.61 50.0001 167.04 49.9301 167.61 49.9301C168.18 49.9301 168.61 50.0001 168.61 50.0801C168.61 50.1601 168.17 50.2401 167.61 50.2401C167.05 50.2401 166.61 50.1701 166.61 50.0801Z" fill="#0066CC"/>
<path d="M162.73 50.0801C162.73 50.0001 163.16 49.9301 163.73 49.9301C164.3 49.9301 164.73 50.0001 164.73 50.0801C164.73 50.1601 164.3 50.2401 163.73 50.2401C163.16 50.2401 162.73 50.1701 162.73 50.0801Z" fill="#0066CC"/>
<path d="M158.85 50.0801C158.85 50.0001 159.29 49.9301 159.85 49.9301C160.41 49.9301 160.85 50.0001 160.85 50.0801C160.85 50.1601 160.42 50.2401 159.85 50.2401C159.28 50.2401 158.85 50.1701 158.85 50.0801Z" fill="#0066CC"/>
<path d="M155 50.0801C155 50.0001 155.43 49.9301 156 49.9301C156.57 49.9301 157 50.0001 157 50.0801C157 50.1601 156.57 50.2401 156 50.2401C155.43 50.2401 155 50.1701 155 50.0801Z" fill="#0066CC"/>
<path d="M151.1 50.0801C151.1 50.0001 151.53 49.9301 152.1 49.9301C152.67 49.9301 153.1 50.0001 153.1 50.0801C153.1 50.1601 152.66 50.2401 152.1 50.2401C151.54 50.2401 151.1 50.1701 151.1 50.0801Z" fill="#0066CC"/>
<path d="M147.22 50.0801C147.22 50.0001 147.65 49.9301 148.22 49.9301C148.79 49.9301 149.22 50.0001 149.22 50.0801C149.22 50.1601 148.79 50.2401 148.22 50.2401C147.65 50.2401 147.22 50.1701 147.22 50.0801Z" fill="#0066CC"/>
<path d="M143.34 50.0801C143.34 50.0001 143.78 49.9301 144.34 49.9301C144.9 49.9301 145.34 50.0001 145.34 50.0801C145.34 50.1601 144.91 50.2401 144.34 50.2401C143.77 50.2401 143.34 50.1701 143.34 50.0801Z" fill="#0066CC"/>
<path d="M139.47 50.0801C139.47 50.0001 139.9 49.9301 140.47 49.9301C141.04 49.9301 141.47 50.0001 141.47 50.0801C141.47 50.1601 141.04 50.2401 140.47 50.2401C139.9 50.2401 139.47 50.1701 139.47 50.0801Z" fill="#0066CC"/>
<path d="M137.12 50.0801C137.12 50.0001 137.21 49.9301 137.32 49.9301C137.43 49.9301 137.53 50.0001 137.53 50.0801C137.53 50.1601 137.44 50.2401 137.32 50.2401C137.296 50.2428 137.272 50.2409 137.25 50.2343C137.227 50.2278 137.205 50.2167 137.187 50.2018C137.168 50.187 137.153 50.1685 137.141 50.1476C137.13 50.1267 137.123 50.1038 137.12 50.0801V50.0801Z" fill="#0066CC"/>
<path d="M176.71 38.27C177.006 38.2988 177.304 38.2988 177.6 38.27C177.989 38.1841 178.354 38.0154 178.671 37.7756C178.989 37.5357 179.251 37.2303 179.44 36.88C179.69 36.3501 179.811 35.7686 179.794 35.183C179.776 34.5974 179.621 34.0242 179.34 33.51C179.275 33.3686 179.178 33.2444 179.056 33.1472C178.935 33.05 178.792 32.9824 178.64 32.95C178.32 32.91 177.997 32.9961 177.74 33.19C177.206 33.7079 176.817 34.3558 176.61 35.07C176.33 35.8456 176.162 36.6571 176.11 37.48H175.78C175.78 34.91 175.73 32.67 175.73 31.07C175.73 30.32 175.73 29.69 175.73 29.19C175.703 28.9642 175.703 28.7359 175.73 28.51C175.776 28.7338 175.799 28.9616 175.8 29.19C175.8 29.69 175.8 30.32 175.88 31.07C175.94 32.67 176 34.91 176.05 37.48H175.72C175.774 36.6262 175.949 35.7844 176.24 34.98C176.378 34.604 176.538 34.2366 176.72 33.88C176.901 33.5174 177.161 33.1997 177.48 32.95C177.644 32.8255 177.831 32.7349 178.03 32.6834C178.229 32.6319 178.436 32.6205 178.64 32.65C178.834 32.6968 179.015 32.7855 179.17 32.91C179.326 33.0344 179.452 33.1914 179.54 33.37C179.836 33.9328 179.991 34.5591 179.991 35.195C179.991 35.8309 179.836 36.4572 179.54 37.02C179.333 37.3878 179.046 37.704 178.7 37.9448C178.353 38.1855 177.957 38.3446 177.54 38.41C177.315 38.447 177.085 38.447 176.86 38.41C176.803 38.372 176.752 38.3247 176.71 38.27V38.27Z" fill="#0066CC"/>
<path d="M78.4202 204.23C78.4202 204.23 78.5602 204.23 78.8302 204.35C79.1002 204.47 79.5002 204.56 80.0102 204.77C81.5038 205.359 82.9316 206.103 84.2702 206.99C86.4028 208.393 88.294 210.132 89.8702 212.14C91.9857 214.794 93.4207 217.925 94.0502 221.26C94.7647 225.325 94.224 229.51 92.5002 233.26C91.5513 235.348 90.2297 237.246 88.6002 238.86C87.7473 239.704 86.8127 240.461 85.8102 241.12C85.2802 241.42 84.8102 241.74 84.2102 242.02C83.6102 242.3 83.1102 242.57 82.5202 242.78C77.8602 244.63 72.5202 244.71 67.1602 244.2C64.4802 243.94 61.7802 243.55 59.0302 243.12C56.2372 242.72 53.4837 242.081 50.8002 241.21C48.0866 240.348 45.5784 238.939 43.4302 237.07C42.4006 236.127 41.4935 235.059 40.7302 233.89C40.0064 232.72 39.4256 231.468 39.0002 230.16C38.1945 227.613 37.9255 224.926 38.2102 222.27C38.4917 219.735 39.2303 217.272 40.3902 215C42.6742 210.849 46.1224 207.456 50.3102 205.24C53.9185 203.292 57.8598 202.037 61.9302 201.54C65.2772 201.143 68.658 201.12 72.0102 201.47C74.5347 201.738 77.0421 202.149 79.5202 202.7C81.5202 203.16 83.1202 203.58 84.1802 203.87L85.3802 204.22L85.7902 204.36L85.3702 204.26L84.1602 203.95C83.1002 203.68 81.5302 203.28 79.4902 202.85C77.0106 202.325 74.5032 201.941 71.9802 201.7C68.6529 201.365 65.2985 201.405 61.9802 201.82C57.9536 202.335 54.0575 203.593 50.4902 205.53C46.3719 207.727 42.9836 211.077 40.7402 215.17C39.6073 217.409 38.8923 219.835 38.6302 222.33C38.3567 224.933 38.6222 227.564 39.4102 230.06C39.8194 231.337 40.3836 232.56 41.0902 233.7C41.8291 234.84 42.7094 235.882 43.7102 236.8C45.8214 238.628 48.2808 240.009 50.9402 240.86C53.608 241.722 56.3446 242.355 59.1202 242.75C61.8502 243.18 64.5602 243.57 67.2202 243.83C72.5202 244.34 77.8302 244.27 82.4102 242.45C86.7776 240.763 90.303 237.421 92.2202 233.15C93.928 229.46 94.4788 225.339 93.8002 221.33C93.1818 218.044 91.7787 214.957 89.7102 212.33C88.1613 210.333 86.3048 208.594 84.2102 207.18C82.883 206.287 81.4732 205.524 80.0002 204.9C79.4902 204.69 79.1002 204.56 78.8302 204.45L78.4202 204.23Z" fill="#263238"/>
<path d="M51.7202 230.07C51.4555 230.138 51.1833 230.171 50.9102 230.17L48.6802 230.28H47.9402C47.6582 230.319 47.3722 230.319 47.0902 230.28C46.9118 230.225 46.7615 230.103 46.6702 229.94C46.5946 229.791 46.5504 229.627 46.5402 229.46L46.4802 228.55C46.4102 227.29 46.3302 225.93 46.2502 224.55C46.1702 223.17 46.0802 221.76 46.0702 220.49C46.0533 219.867 46.198 219.25 46.4902 218.7C46.7793 218.245 47.207 217.894 47.7102 217.7C48.4319 217.449 49.2009 217.363 49.9602 217.45C50.2364 217.457 50.5098 217.508 50.7702 217.6C50.4973 217.624 50.223 217.624 49.9502 217.6C49.2236 217.569 48.4985 217.688 47.8202 217.95C47.392 218.149 47.0407 218.483 46.8202 218.9C46.5701 219.402 46.4497 219.959 46.4702 220.52C46.4702 221.74 46.6202 223.13 46.6802 224.52C46.7402 225.91 46.8202 227.31 46.8902 228.52C46.9502 229.11 46.8202 229.85 47.2302 229.95C47.4789 229.986 47.7315 229.986 47.9802 229.95H50.9802C51.231 229.958 51.4797 229.999 51.7202 230.07V230.07Z" fill="#263238"/>
<path d="M50.6002 223.52C49.927 223.725 49.2223 223.806 48.5202 223.76C47.8196 223.836 47.111 223.782 46.4302 223.6C47.1022 223.389 47.8079 223.308 48.5102 223.36C49.2107 223.283 49.9195 223.337 50.6002 223.52V223.52Z" fill="#263238"/>
<path d="M61.0002 221.66C59.9504 221.808 58.8895 221.861 57.8302 221.82C56.7785 221.903 55.7219 221.903 54.6702 221.82C55.688 221.499 56.7533 221.353 57.8202 221.39C58.8878 221.306 59.962 221.397 61.0002 221.66Z" fill="#263238"/>
<path d="M61.6201 226.44C60.5912 226.676 59.5319 226.75 58.4801 226.66C57.4304 226.702 56.3807 226.577 55.3701 226.29C56.4077 226.19 57.4525 226.19 58.4901 226.29C59.5358 226.246 60.5835 226.296 61.6201 226.44Z" fill="#263238"/>
<path d="M78.43 229.31C78.43 229.31 78.43 228.88 78.43 228.09C78.382 226.974 78.1801 225.871 77.83 224.81C77.6699 224.066 77.2607 223.4 76.67 222.92C76.5011 222.825 76.3082 222.781 76.1146 222.793C75.9211 222.805 75.7354 222.874 75.58 222.99C75.2272 223.252 74.9425 223.595 74.75 223.99C73.95 225.957 73.608 228.081 73.75 230.2H73.36C73.4743 228.668 73.4542 227.129 73.3 225.6C73.2449 224.979 73.1581 224.362 73.04 223.75C72.9411 223.185 72.6431 222.674 72.2 222.31C71.9874 222.157 71.732 222.075 71.47 222.075C71.208 222.075 70.9527 222.157 70.74 222.31C70.291 222.605 69.9641 223.053 69.82 223.57C69.6767 224.09 69.5829 224.622 69.54 225.16C69.48 225.69 69.43 226.21 69.41 226.72C69.355 227.669 69.355 228.621 69.41 229.57H69.1C69.02 227.32 68.95 225.48 68.9 224.13C68.9 223.53 68.9 223.04 68.9 222.65C68.8784 222.477 68.8784 222.303 68.9 222.13C68.9399 222.301 68.9633 222.475 68.97 222.65L69.09 224.13C69.17 225.47 69.29 227.31 69.43 229.55H69.12C69.0691 228.591 69.0691 227.629 69.12 226.67C69.12 226.16 69.18 225.67 69.24 225.09C69.2807 224.528 69.3779 223.972 69.53 223.43C69.6943 222.825 70.0705 222.3 70.59 221.95C70.8891 221.762 71.2366 221.664 71.59 221.67C71.9499 221.671 72.3 221.787 72.59 222C73.113 222.419 73.468 223.011 73.59 223.67C73.7175 224.298 73.811 224.932 73.87 225.57C74.0044 227.124 74.0044 228.686 73.87 230.24H73.48C73.3479 228.067 73.7245 225.892 74.58 223.89C74.8075 223.429 75.1524 223.036 75.58 222.75C75.7849 222.603 76.0278 222.518 76.2797 222.506C76.5316 222.493 76.7817 222.554 77 222.68C77.6461 223.202 78.0884 223.935 78.25 224.75C78.5804 225.839 78.7489 226.972 78.75 228.11C78.75 228.51 78.75 228.82 78.7 229.02C78.6261 229.131 78.535 229.228 78.43 229.31V229.31Z" fill="#263238"/>
<path d="M87.1902 228.68C87.1902 228.68 87.0502 228.85 86.7102 229.02C86.2264 229.255 85.698 229.385 85.1602 229.4C84.3478 229.425 83.5465 229.206 82.8602 228.77C82.0187 228.212 81.4192 227.357 81.1818 226.376C80.9444 225.395 81.0867 224.361 81.5802 223.48C81.9943 222.781 82.6069 222.22 83.3402 221.87C83.8243 221.637 84.353 221.511 84.8902 221.5C85.087 221.485 85.2847 221.512 85.4702 221.58C84.7764 221.638 84.0988 221.821 83.4702 222.12C82.8169 222.478 82.2767 223.011 81.9102 223.66C81.491 224.467 81.3775 225.398 81.5907 226.282C81.8039 227.166 82.3293 227.943 83.0702 228.47C83.6944 228.882 84.4227 229.107 85.1702 229.12C85.8653 229.103 86.5508 228.953 87.1902 228.68V228.68Z" fill="#263238"/>
<path d="M89.55 217.35C88.0428 217.442 86.5503 217.7 85.1 218.12L84.43 218.34L84.93 217.83C85.893 216.951 86.7278 215.941 87.41 214.83C87.9431 213.901 88.1275 212.813 87.93 211.76C87.82 211.29 87.54 210.92 87.16 210.91C86.7646 210.917 86.3768 211.02 86.03 211.21C85.4997 211.483 85.0302 211.861 84.65 212.32C84.38 212.65 84.27 212.87 84.24 212.85C84.2809 212.622 84.3809 212.408 84.53 212.23C84.8748 211.703 85.3457 211.27 85.9 210.97C86.2849 210.73 86.7265 210.595 87.18 210.58C87.3193 210.584 87.4563 210.618 87.582 210.678C87.7077 210.738 87.8194 210.824 87.91 210.93C88.0893 211.141 88.2161 211.391 88.28 211.66C88.5272 212.806 88.342 214.003 87.76 215.02C87.0637 216.179 86.1897 217.222 85.17 218.11L85 217.81C86.065 217.49 87.1682 217.315 88.28 217.29C88.7035 217.235 89.1335 217.255 89.55 217.35Z" fill="#263238"/>
<path d="M156.52 205.52L177.83 201.41L218.71 210.79L239.43 215.11L239.73 243.42L193.51 251.93L162.32 242.69L150.53 225.34L156.52 205.52Z" fill="#FFBE9D"/>
<path d="M141.38 208.34L161.49 203.6C161.49 203.6 175.71 247.6 210.8 245.67C239.4 244.12 239.43 215.11 239.43 215.11L260.34 218.8C260.34 218.8 269.11 271.89 259.5 309.13C251.5 340.13 244.4 382.61 244.4 382.61H105.49L141.38 208.34V208.34Z" fill="#0066CC"/>
<path d="M345.15 344.37C345.15 344.37 287.86 244 277.55 231.12C266.26 217.02 257.25 218.65 257.25 218.65L251.19 286.26L299.9 355.37L311.51 359.56L345.15 344.37Z" fill="#0066CC"/>
<path d="M143.78 207.78C143.78 207.78 111.22 210.38 99.54 263.78C94.26 287.91 87.54 316.19 85.66 335.19C84.26 348.98 92.77 363.32 106.52 365.08L123.78 368.28C128.34 369.126 133.051 368.192 136.943 365.67C140.834 363.147 143.611 359.228 144.7 354.72L150.53 330.58L135 325.36L138.59 253.45L143.78 207.78Z" fill="#0066CC"/>
<path d="M263 256.12C263.076 256.36 263.127 256.609 263.15 256.86C263.24 257.4 263.34 258.12 263.48 259.01C263.55 259.48 263.62 260.01 263.71 260.57C263.8 261.13 263.83 261.76 263.89 262.43C264.03 263.76 264.19 265.28 264.26 266.97C264.501 270.922 264.528 274.885 264.34 278.84C264.106 283.681 263.626 288.508 262.9 293.3C262.15 298.4 261.21 303.22 260.26 307.58C259.31 311.94 258.36 315.85 257.55 319.13C256.74 322.41 256.03 325.04 255.55 326.86C255.31 327.73 255.12 328.43 254.97 328.95C254.91 329.195 254.833 329.435 254.74 329.67C254.76 329.42 254.804 329.172 254.87 328.93C254.99 328.39 255.16 327.69 255.36 326.81L257.2 319C257.97 315.71 258.89 311.8 259.8 307.44C260.71 303.08 261.65 298.27 262.4 293.18C263.15 288.09 263.66 283.18 263.87 278.77C264.08 274.36 264.1 270.31 263.87 266.95C263.87 265.27 263.69 263.75 263.58 262.41C263.53 261.75 263.48 261.13 263.44 260.55C263.4 259.97 263.31 259.47 263.26 258.99C263.16 258.1 263.09 257.38 263.03 256.84C263.004 256.601 262.994 256.36 263 256.12V256.12Z" fill="#263238"/>
<path d="M152.05 333.16C151.981 333.018 151.924 332.871 151.88 332.72C151.78 332.39 151.64 331.97 151.47 331.43L150.83 329.36C150.65 328.418 150.253 327.532 149.67 326.77C148.814 325.949 147.791 325.321 146.67 324.93C145.353 324.432 143.994 324.051 142.61 323.79C139.31 323.179 135.965 322.844 132.61 322.79H132.34V322.53L135.28 303.36C137.17 291.29 138.89 280.36 140.14 272.36C140.79 268.44 141.31 265.25 141.68 262.99C141.86 261.92 142.01 261.07 142.12 260.44C142.12 260.18 142.21 259.96 142.25 259.78C142.257 259.704 142.277 259.629 142.31 259.56C142.325 259.636 142.325 259.714 142.31 259.79C142.31 259.97 142.31 260.19 142.23 260.46C142.15 261.09 142.03 261.94 141.89 263.02C141.56 265.29 141.09 268.49 140.52 272.42C139.3 280.42 137.64 291.33 135.8 303.42C134.72 310.32 133.71 316.85 132.8 322.58L132.57 322.31C135.966 322.398 139.349 322.776 142.68 323.44C144.083 323.72 145.459 324.125 146.79 324.65C147.956 325.078 149.012 325.761 149.88 326.65C150.237 327.052 150.504 327.526 150.66 328.04L151.03 329.37C151.26 330.18 151.45 330.88 151.61 331.46C151.77 332.04 151.87 332.46 151.95 332.77C151.995 332.897 152.029 333.027 152.05 333.16V333.16Z" fill="#263238"/>
<path d="M107.2 341.32C107.232 340.864 107.319 340.414 107.46 339.98C107.774 338.775 108.196 337.6 108.72 336.47C110.425 332.693 113.084 329.425 116.434 326.986C119.785 324.547 123.712 323.022 127.83 322.56C129.064 322.409 130.309 322.369 131.55 322.44C132.008 322.445 132.464 322.502 132.91 322.61C131.239 322.619 129.569 322.723 127.91 322.92C123.885 323.475 120.06 325.016 116.775 327.406C113.49 329.796 110.847 332.962 109.08 336.62C108.37 338.152 107.742 339.721 107.2 341.32V341.32Z" fill="#263238"/>
<path d="M114.73 314.74C114.985 314.675 115.248 314.652 115.51 314.67C116.228 314.657 116.946 314.69 117.66 314.77C120.021 315.008 122.335 315.587 124.53 316.49C126.724 317.398 128.778 318.614 130.63 320.1C131.191 320.544 131.723 321.025 132.22 321.54C132.57 321.91 132.76 322.12 132.73 322.15C132.7 322.18 131.85 321.45 130.41 320.39C126.634 317.623 122.241 315.818 117.61 315.13C115.84 314.87 114.73 314.83 114.73 314.74Z" fill="#263238"/>
<path d="M148.43 245.67C148.365 245.196 148.341 244.718 148.36 244.24C148.36 243.32 148.3 242 148.18 240.37C147.88 236.117 147.149 231.906 146 227.8C144.834 223.701 143.263 219.728 141.31 215.94C140.55 214.49 139.91 213.33 139.44 212.55C139.177 212.151 138.949 211.729 138.76 211.29C139.079 211.646 139.364 212.031 139.61 212.44C140.14 213.2 140.83 214.33 141.61 215.77C145.772 223.323 148.133 231.735 148.51 240.35C148.58 241.99 148.57 243.35 148.51 244.24C148.531 244.718 148.504 245.197 148.43 245.67V245.67Z" fill="#263238"/>
<g opacity="0.3">
<path opacity="0.3" d="M261.52 300.91C269.82 286.84 270 268.56 262.75 253.91C265.082 269.518 264.58 285.419 261.27 300.85" fill="black"/>
</g>
<g opacity="0.3">
<path opacity="0.3" d="M187.62 316.82C181.32 318.67 172.62 319.12 166.45 316.82C171.26 323.65 180.53 326.12 188.57 323.9C196.61 321.68 204.03 313.63 204.65 305.3C200.76 310.56 193.93 315 187.62 316.82Z" fill="black"/>
</g>
<path d="M210.8 294.1C210.771 294.292 210.721 294.479 210.65 294.66C210.53 295.02 210.39 295.57 210.11 296.23C209.381 298.141 208.474 299.979 207.4 301.72C205.817 304.316 203.904 306.696 201.71 308.8C196.326 314.041 189.376 317.377 181.92 318.3C178.906 318.691 175.854 318.691 172.84 318.3C170.804 318.047 168.796 317.608 166.84 316.99C166.14 316.78 165.63 316.55 165.27 316.42C165.087 316.358 164.91 316.281 164.74 316.19C165.466 316.353 166.184 316.554 166.89 316.79C175.357 319.144 184.386 318.396 192.35 314.68C200.234 310.804 206.462 304.225 209.9 296.14C210.48 294.84 210.75 294.08 210.8 294.1Z" fill="#263238"/>
<path d="M140.56 364.11C140.56 364.11 140.49 364.22 140.31 364.38C140.058 364.63 139.787 364.861 139.5 365.07C138.454 365.85 137.294 366.464 136.06 366.89C134.226 367.5 132.312 367.837 130.38 367.89C128.044 367.964 125.705 367.88 123.38 367.64C118.38 367.21 113.94 366.48 110.73 365.91C109.12 365.62 107.82 365.37 106.93 365.18C106.456 365.116 105.99 365.002 105.54 364.84C106.016 364.847 106.491 364.894 106.96 364.98L110.79 365.54C114.01 366.03 118.47 366.69 123.43 367.12C125.755 367.36 128.093 367.457 130.43 367.41C132.323 367.37 134.201 367.067 136.01 366.51C137.638 365.942 139.172 365.133 140.56 364.11V364.11Z" fill="#263238"/>
<path d="M253.5 101L257.61 97C263.08 99.38 265.61 105.73 266.54 111.63C267.47 117.53 267.33 123.73 269.84 129.15C271.76 133.32 275.25 137.15 274.84 141.76C274.45 146.11 270.51 149.63 270.49 154C270.49 158.21 273.99 161.44 276.03 165.12C280.16 172.57 282.84 203.05 280.68 211.3C262.51 209.73 230.33 207.79 212.15 203.61C216.94 172.29 237.11 128.09 253.5 101Z" fill="#263238"/>
<path d="M261.63 128.92C262.89 107.63 247.43 88.15 225.88 85.58C203.01 82.86 182.78 99.24 180.88 121.52L175.52 211.46C175.422 213.198 175.908 214.919 176.9 216.35C182.18 224.07 191.74 230.11 200.29 231.3C208.56 232.45 216.95 230.3 223.99 226.38C225.158 225.72 226.132 224.765 226.814 223.61C227.497 222.455 227.864 221.141 227.88 219.8L228.25 199.67C228.248 199.653 228.251 199.635 228.257 199.619C228.263 199.602 228.272 199.587 228.285 199.575C228.297 199.562 228.312 199.553 228.328 199.547C228.345 199.541 228.362 199.538 228.38 199.54C230.264 199.682 232.157 199.628 234.03 199.38C239.35 198.08 252.92 192.86 257.48 172.94C259 166.34 260.52 147.59 261.63 128.92Z" fill="#FFBE9D"/>
<path d="M232.05 158.33C232.05 158.13 234.28 157.91 237.89 157.71C238.8 157.71 239.67 157.56 239.89 156.96C240.024 156.043 239.871 155.106 239.45 154.28L237.21 147.28C234.11 137.36 231.93 129.23 232.33 129.12C232.73 129.01 235.58 136.94 238.68 146.86C239.42 149.31 240.13 151.64 240.81 153.86C241.09 154.86 241.6 156.08 241.05 157.39C240.897 157.695 240.676 157.961 240.404 158.168C240.131 158.374 239.815 158.515 239.48 158.58C238.97 158.682 238.449 158.719 237.93 158.69C234.29 158.67 232.06 158.53 232.05 158.33Z" fill="#263238"/>
<path d="M255.75 136.45C255.36 136.88 253 134.9 249.62 134.8C246.24 134.7 243.72 136.47 243.36 136.01C243.18 135.8 243.59 135.01 244.69 134.19C246.143 133.145 247.901 132.611 249.69 132.67C251.477 132.732 253.191 133.39 254.56 134.54C255.61 135.44 256 136.26 255.75 136.45Z" fill="#263238"/>
<path d="M221.41 137.31C220.95 137.74 218.49 135.51 214.8 135.19C211.11 134.87 208.24 136.56 207.87 136.06C207.69 135.83 208.19 135.06 209.44 134.24C211.115 133.248 213.062 132.813 215 133C216.94 133.172 218.771 133.968 220.22 135.27C221.31 136.24 221.63 137.12 221.41 137.31Z" fill="#263238"/>
<path d="M228.25 199.53C228.25 199.53 214.47 199.68 197.99 188.36C197.99 188.36 202.25 206.54 228.14 205.97L228.25 199.53Z" fill="#EB996E"/>
<path d="M230 166.63C229.372 165.745 228.533 165.031 227.558 164.554C226.583 164.077 225.504 163.852 224.42 163.9C223.637 163.911 222.864 164.08 222.148 164.396C221.432 164.712 220.786 165.169 220.25 165.74C219.738 166.286 219.41 166.979 219.311 167.722C219.212 168.464 219.348 169.219 219.7 169.88C220.57 171.27 222.55 171.72 224.28 171.36C225.993 170.891 227.597 170.089 229 169C229.417 168.733 229.782 168.395 230.08 168C230.221 167.816 230.303 167.594 230.318 167.362C230.332 167.131 230.277 166.9 230.16 166.7" fill="#EB996E"/>
<path d="M221.45 160C222.03 160 221.8 163.8 224.92 166.72C228.04 169.64 232.17 169.5 232.17 170.03C232.17 170.28 231.17 170.71 229.47 170.63C227.216 170.505 225.075 169.604 223.41 168.08C221.824 166.63 220.869 164.616 220.75 162.47C220.7 160.88 221.19 160 221.45 160Z" fill="#263238"/>
<path d="M222 123.37C221.58 124.29 218.07 123.58 213.88 123.75C209.69 123.92 206.24 124.75 205.74 123.9C205.53 123.47 206.17 122.63 207.6 121.81C209.502 120.819 211.601 120.269 213.744 120.2C215.887 120.131 218.018 120.544 219.98 121.41C221.43 122.13 222.14 122.93 222 123.37Z" fill="#263238"/>
<path d="M256.48 124.12C255.76 124.92 252.91 124.12 249.48 124.12C246.05 124.12 243.17 124.69 242.48 123.86C242.18 123.46 242.63 122.66 243.89 121.86C245.635 120.946 247.582 120.488 249.551 120.53C251.52 120.572 253.446 121.112 255.15 122.1C256.39 122.91 256.8 123.73 256.48 124.12Z" fill="#263238"/>
<path d="M229 81.08C227.14 77.92 223.69 76.48 219.83 75.9C204.07 73.51 186.49 83 177.66 96.26C168.83 109.52 168.36 129.31 174.82 143.87L184.65 137.73C204.38 129.59 218.31 110.58 231 90.94C232.77 88.27 230.65 83.83 229 81.08Z" fill="#263238"/>
<path d="M253.28 89.75C246.69 82.25 241.9 74.75 228.22 79.99C226.22 83.82 230.22 88.79 233.66 91.69C238.66 95.95 242.95 98.8199 246.21 101.87C252.79 108.02 260.27 128.71 260.92 140C260.92 140.71 262.17 130.31 262.92 130.2C263.84 130.06 267.55 125.52 267.04 119.32C265.28 98.13 259.87 97.24 253.28 89.75Z" fill="#263238"/>
<path d="M219.87 75.8999C220.898 75.6995 221.961 75.7895 222.94 76.16C225.361 76.9024 227.519 78.3215 229.16 80.25C229.629 80.7921 230.044 81.3781 230.4 82C230.711 82.6007 230.952 83.2347 231.12 83.89C231.477 84.9463 231.748 86.0299 231.93 87.13C232.2 89.06 231.74 90.23 231.64 90.2C231.54 90.17 231.69 89.02 231.27 87.25C230.993 86.2027 230.659 85.1713 230.27 84.16C230.092 83.5687 229.858 82.9961 229.57 82.45C229.232 81.8768 228.844 81.3347 228.41 80.83C226.862 79.0362 224.903 77.6433 222.7 76.77C221 76.16 219.85 76.0599 219.87 75.8999Z" fill="#455A64"/>
<path d="M252.63 143C252.631 143.767 252.339 144.505 251.812 145.063C251.286 145.621 250.566 145.957 249.8 146C249.42 146.036 249.036 145.995 248.672 145.88C248.307 145.766 247.97 145.58 247.678 145.333C247.387 145.086 247.147 144.784 246.974 144.443C246.801 144.103 246.698 143.731 246.67 143.35C246.651 142.571 246.935 141.815 247.463 141.242C247.992 140.669 248.722 140.324 249.5 140.28C249.886 140.243 250.276 140.285 250.645 140.403C251.015 140.522 251.356 140.714 251.649 140.968C251.942 141.223 252.18 141.534 252.348 141.883C252.517 142.233 252.613 142.613 252.63 143V143Z" fill="#263238"/>
<path d="M219.69 143.16C219.709 143.939 219.425 144.695 218.897 145.268C218.368 145.841 217.638 146.186 216.86 146.23C216.48 146.267 216.097 146.228 215.733 146.114C215.368 146.001 215.03 145.816 214.739 145.57C214.447 145.324 214.207 145.022 214.034 144.682C213.861 144.342 213.758 143.971 213.73 143.59C213.708 142.809 213.991 142.051 214.52 141.475C215.048 140.9 215.78 140.554 216.56 140.51C216.941 140.473 217.325 140.513 217.69 140.627C218.055 140.741 218.393 140.927 218.685 141.174C218.977 141.421 219.216 141.724 219.389 142.065C219.561 142.406 219.664 142.779 219.69 143.16V143.16Z" fill="#263238"/>
<path d="M129.05 168.19C130.91 165.13 133.05 162.25 136.45 160.98C139.85 159.71 143.71 158.98 146.38 156.5C150.57 152.65 150.38 146.25 150 140.67C149.62 135.09 149.52 128.67 153.8 124.92C157.38 121.79 163.07 121.51 166.17 117.92C168.24 115.53 168.65 112.23 169.37 109.18C171.37 101.01 175.84 86.74 199.92 78.53L178.62 159.47C180.21 159.92 184.01 163.54 184.22 165.99C184.41 168.28 183.42 170.6 183.4 172.9C183.4 175.71 186.46 177.39 188.4 179.47C190.86 182.12 191.62 185.94 191.24 189.47C190.451 194.295 189.161 199.024 187.39 203.58C167.63 201.58 138.79 200.94 123.73 188.34C121 186.06 124.91 175 129.05 168.19Z" fill="#263238"/>
<path d="M184.69 137.73C184.32 137.53 169.77 131.73 168.84 147.08C167.91 162.43 183.48 160.15 183.53 159.72C183.58 159.29 184.69 137.73 184.69 137.73Z" fill="#FFBE9D"/>
<path d="M179.21 153.64C179.14 153.58 178.93 153.81 178.46 153.98C177.81 154.218 177.092 154.193 176.46 153.91C174.88 153.21 173.67 150.56 173.76 147.8C173.811 146.485 174.152 145.197 174.76 144.03C174.934 143.561 175.219 143.141 175.589 142.805C175.96 142.469 176.406 142.227 176.89 142.1C177.202 142.038 177.526 142.086 177.805 142.238C178.085 142.39 178.302 142.635 178.42 142.93C178.6 143.37 178.48 143.67 178.56 143.7C178.64 143.73 178.91 143.46 178.82 142.82C178.762 142.434 178.571 142.08 178.28 141.82C177.879 141.474 177.358 141.302 176.83 141.34C176.194 141.424 175.59 141.671 175.077 142.057C174.564 142.442 174.159 142.953 173.9 143.54C173.169 144.83 172.764 146.278 172.72 147.76C172.63 150.85 174.03 153.83 176.21 154.6C176.613 154.746 177.044 154.799 177.47 154.754C177.896 154.709 178.307 154.567 178.67 154.34C179.16 154 179.26 153.67 179.21 153.64Z" fill="#EB996E"/>
<path d="M239.14 141.74C239.221 140.586 239.385 139.44 239.63 138.31C240.093 136.419 240.945 134.645 242.131 133.102C243.318 131.558 244.814 130.28 246.523 129.347C248.232 128.414 250.117 127.848 252.057 127.685C253.997 127.522 255.949 127.766 257.79 128.4C259.058 128.828 260.252 129.448 261.33 130.24C262.482 131.036 263.495 132.016 264.33 133.14C266.122 135.486 267.114 138.345 267.161 141.297C267.208 144.249 266.307 147.138 264.59 149.54C263.797 150.688 262.825 151.701 261.71 152.54C260.659 153.368 259.485 154.026 258.23 154.49C255.91 155.384 253.393 155.639 250.94 155.23C248.802 154.877 246.777 154.024 245.03 152.74C242.473 150.88 240.617 148.213 239.76 145.17C239.484 144.045 239.284 142.902 239.16 141.75C239.156 141.827 239.156 141.903 239.16 141.98C239.16 142.17 239.16 142.39 239.16 142.66C239.169 143.026 239.206 143.39 239.27 143.75C239.325 144.247 239.419 144.738 239.55 145.22C240.353 148.351 242.206 151.112 244.8 153.04C246.721 154.477 248.975 155.405 251.351 155.738C253.727 156.07 256.149 155.795 258.39 154.94C261.051 153.934 263.352 152.159 265 149.84C266.783 147.352 267.719 144.356 267.671 141.295C267.622 138.235 266.591 135.27 264.73 132.84C263.864 131.681 262.817 130.668 261.63 129.84C260.522 129.044 259.297 128.423 258 128C255.733 127.217 253.304 127.019 250.941 127.427C248.577 127.834 246.354 128.833 244.48 130.33C241.943 132.342 240.177 135.168 239.48 138.33C239.366 138.817 239.286 139.312 239.24 139.81C239.191 140.175 239.168 140.542 239.17 140.91C239.17 141.18 239.17 141.4 239.17 141.58C239.158 141.633 239.148 141.686 239.14 141.74V141.74Z" fill="#455A64"/>
<path d="M200.5 142.36C200.58 141.207 200.741 140.061 200.98 138.93C201.732 135.862 203.493 133.137 205.98 131.19C207.686 129.852 209.684 128.934 211.81 128.51C214.249 128.028 216.772 128.204 219.12 129.02C220.386 129.452 221.579 130.072 222.66 130.86C223.81 131.659 224.823 132.638 225.66 133.76C227.45 136.105 228.441 138.961 228.49 141.911C228.538 144.86 227.641 147.747 225.93 150.15C225.133 151.298 224.157 152.31 223.04 153.15C221.99 153.978 220.815 154.637 219.56 155.1C217.24 155.994 214.723 156.249 212.27 155.84C210.134 155.487 208.113 154.634 206.37 153.35C203.811 151.49 201.952 148.824 201.09 145.78C200.814 144.655 200.617 143.512 200.5 142.36C200.489 142.436 200.489 142.514 200.5 142.59C200.5 142.77 200.5 143 200.5 143.27C200.5 143.636 200.533 144 200.6 144.36C200.654 144.857 200.751 145.349 200.89 145.83C201.684 148.965 203.539 151.728 206.14 153.65C207.909 154.978 209.963 155.876 212.14 156.27C214.669 156.706 217.269 156.457 219.67 155.55C222.335 154.552 224.638 152.775 226.28 150.45C228.063 147.962 228.999 144.966 228.951 141.905C228.902 138.845 227.871 135.88 226.01 133.45C224.29 131.183 221.933 129.481 219.24 128.56C216.811 127.73 214.203 127.568 211.69 128.09C209.013 128.64 206.552 129.951 204.601 131.865C202.65 133.778 201.292 136.214 200.69 138.88C200.566 139.365 200.486 139.86 200.45 140.36C200.391 140.723 200.367 141.092 200.38 141.46V142.13C200.403 142.214 200.444 142.293 200.5 142.36V142.36Z" fill="#455A64"/>
<path d="M228.1 141.31C228.18 141.36 228.58 140.71 229.51 139.96C230.702 138.971 232.195 138.418 233.744 138.391C235.292 138.363 236.804 138.864 238.03 139.81C239.03 140.52 239.41 141.16 239.48 141.1C239.231 140.468 238.808 139.92 238.26 139.52C237.008 138.424 235.391 137.834 233.727 137.865C232.063 137.896 230.47 138.547 229.26 139.69C228.729 140.111 228.327 140.672 228.1 141.31V141.31Z" fill="#455A64"/>
<path d="M181.17 136.75C182.09 137.042 183.039 137.236 184 137.33C185.77 137.61 188.22 137.87 190.92 138.11L197.85 138.73C198.8 138.876 199.759 138.95 200.72 138.95C199.8 138.656 198.851 138.458 197.89 138.36C196.13 138.09 193.68 137.83 190.97 137.59L184.05 136.97C183.098 136.818 182.134 136.744 181.17 136.75V136.75Z" fill="#455A64"/>
<path d="M261.46 150.39C262.708 148.948 263.72 147.318 264.46 145.56C265.041 143.74 265.334 141.84 265.33 139.93C265.552 140.468 265.655 141.048 265.63 141.63C265.666 143.031 265.435 144.425 264.95 145.74C264.466 147.055 263.733 148.264 262.79 149.3C262.06 150.08 261.5 150.44 261.46 150.39Z" fill="white"/>
<path d="M263.88 134.59C263.96 134.47 264.53 134.76 264.88 135.44C265.23 136.12 265.08 136.74 264.94 136.73C264.8 136.72 264.68 136.21 264.41 135.66C264.14 135.11 263.79 134.7 263.88 134.59Z" fill="white"/>
<path d="M226.16 147.36C226.08 147.36 226.36 146.56 226.59 145.27C227.18 141.886 226.53 138.403 224.76 135.46C224.09 134.34 223.55 133.72 223.61 133.66C224.199 134.09 224.696 134.634 225.07 135.26C226.074 136.714 226.764 138.361 227.097 140.097C227.429 141.832 227.396 143.618 227 145.34C226.859 146.063 226.573 146.75 226.16 147.36Z" fill="white"/>
<path d="M173 159.51C173 159.51 172.79 159.81 172.49 160.36C172.06 161.141 171.833 162.018 171.83 162.91C171.814 163.557 171.932 164.2 172.176 164.798C172.42 165.397 172.786 165.939 173.25 166.39C173.809 166.946 174.492 167.362 175.243 167.603C175.994 167.845 176.791 167.905 177.57 167.78C178.344 167.621 179.07 167.284 179.691 166.796C180.312 166.309 180.812 165.684 181.15 164.97C181.423 164.384 181.574 163.748 181.593 163.101C181.612 162.455 181.499 161.811 181.26 161.21C180.944 160.378 180.429 159.636 179.76 159.05C179.28 158.64 178.96 158.47 178.98 158.43C179.31 158.515 179.618 158.672 179.88 158.89C180.643 159.445 181.238 160.199 181.6 161.07C181.89 161.715 182.04 162.413 182.04 163.12C182.04 163.827 181.89 164.525 181.6 165.17C181.256 165.974 180.718 166.679 180.033 167.223C179.349 167.768 178.541 168.134 177.68 168.288C176.82 168.443 175.934 168.381 175.104 168.109C174.273 167.838 173.522 167.363 172.92 166.73C172.422 166.23 172.035 165.63 171.785 164.97C171.535 164.31 171.428 163.605 171.47 162.9C171.504 161.958 171.799 161.045 172.32 160.26C172.67 159.71 173 159.49 173 159.51Z" fill="#E0E0E0"/>
<path d="M257.47 171.31C258.316 171.649 259.249 171.705 260.13 171.47C261.072 171.206 261.921 170.683 262.58 169.96C263.392 169.083 263.94 167.995 264.16 166.82C264.389 165.645 264.242 164.427 263.74 163.34C263.328 162.449 262.716 161.665 261.95 161.05C261.211 160.51 260.404 160.069 259.55 159.74C259.804 159.717 260.061 159.751 260.3 159.84C260.976 160.028 261.613 160.336 262.18 160.75C263.029 161.374 263.715 162.194 264.18 163.14C264.751 164.309 264.927 165.632 264.68 166.91C264.435 168.187 263.824 169.365 262.92 170.3C262.187 171.065 261.244 171.597 260.21 171.83C259.517 171.994 258.792 171.955 258.12 171.72C257.65 171.53 257.45 171.33 257.47 171.31Z" fill="#E0E0E0"/>
<path d="M202 369.87L216.83 374.26C216.83 374.26 225.01 377.77 228.99 378.68C233.93 379.81 237.3 378.28 237.48 375.53C237.66 372.78 233.82 372.43 233.82 372.43C230.556 371.187 227.382 369.72 224.32 368.04C222.096 366.495 220.278 364.437 219.02 362.04L224.32 362.77C224.32 362.77 235.47 370.77 239.67 373.19C243.87 375.61 244.79 371.36 245.15 370.08C245.51 368.8 232.73 355.83 232.73 355.83C232.73 355.83 244.97 363.69 247.16 365.65C249.35 367.61 252.65 368.25 253.38 366.98C254.11 365.71 256.12 365.7 253.38 360.28C250.64 354.86 228.71 340.28 228.71 340.28L234.71 339L241.29 341.93C241.748 344.188 242.682 346.322 244.03 348.19C246.4 351.71 250.61 348.19 250.61 348.19L248 334.69L235 326.55C235 326.55 221.48 328.2 219.47 329.11C217.46 330.02 215.26 333.85 215.26 333.85L211.61 335.33C205.94 336.97 206.13 342.64 204.3 342.82C202.47 343 149.13 332.6 149.13 332.6L144.3 331.34C136.3 337.41 133.11 347.44 131.7 356.34C131.7 356.34 130.23 360.7 131.7 363.1L202 369.87Z" fill="#FFBE9D"/>
<path d="M192.21 360.38C192.147 360.094 192.13 359.801 192.16 359.51C192.156 359.174 192.186 358.839 192.25 358.51C192.297 358.056 192.384 357.608 192.51 357.17C193.261 354.645 194.531 352.305 196.24 350.3C197.899 348.284 199.748 346.433 201.76 344.77C202.557 344.043 203.425 343.396 204.35 342.84C203.61 343.606 202.825 344.327 202 345C200.077 346.723 198.285 348.589 196.64 350.58C194.979 352.542 193.701 354.797 192.87 357.23C192.28 359.14 192.32 360.39 192.21 360.38Z" fill="#EB996E"/>
<path d="M215.31 333.85C215.31 333.85 214.87 334.08 214.19 334.63C213.242 335.43 212.423 336.371 211.76 337.42C211.282 338.129 210.873 338.883 210.54 339.67C210.232 340.597 210.038 341.557 209.96 342.53C209.822 343.662 209.418 344.745 208.78 345.69C208.056 346.605 207.461 347.614 207.01 348.69C206.325 350.508 206.325 352.512 207.01 354.33L207.08 354.52L206.91 354.63C204.591 356.128 202.913 358.434 202.2 361.1C201.954 362.151 201.804 363.222 201.75 364.3C201.669 364.021 201.635 363.73 201.65 363.44C201.639 362.629 201.726 361.82 201.91 361.03C202.548 358.229 204.247 355.784 206.65 354.21L206.55 354.51C205.826 352.576 205.826 350.445 206.55 348.51C207.011 347.403 207.631 346.369 208.39 345.44C208.998 344.544 209.382 343.515 209.51 342.44C209.63 340.534 210.328 338.71 211.51 337.21C212.216 336.147 213.103 335.217 214.13 334.46C214.407 334.252 214.709 334.08 215.03 333.95C215.119 333.905 215.213 333.871 215.31 333.85V333.85Z" fill="#EB996E"/>
<path d="M228.15 339.83C226.87 339.996 225.57 339.858 224.353 339.427C223.137 338.996 222.04 338.284 221.15 337.35C221.25 337.23 222.59 338.26 224.52 338.93C226.45 339.6 228.15 339.68 228.15 339.83Z" fill="#EB996E"/>
<path d="M231.57 354.6C229.639 354.058 227.761 353.342 225.96 352.46C224.089 351.741 222.282 350.865 220.56 349.84C222.486 350.396 224.363 351.112 226.17 351.98C228.041 352.698 229.848 353.575 231.57 354.6V354.6Z" fill="#EB996E"/>
<path d="M219.54 361.9C217.599 361.242 215.702 360.461 213.86 359.56C214.904 359.606 215.926 359.872 216.86 360.34C217.857 360.658 218.771 361.191 219.54 361.9Z" fill="#EB996E"/>
<path d="M229.73 355.55C228.869 356.012 228.112 356.645 227.505 357.41C226.898 358.175 226.454 359.057 226.2 360C226.13 360 226.07 359.65 226.2 359.09C226.342 358.356 226.657 357.668 227.12 357.081C227.583 356.495 228.18 356.028 228.86 355.72C229.35 355.51 229.71 355.49 229.73 355.55Z" fill="#EB996E"/>
<path d="M235.09 347.44C235.15 347.58 234.17 348.08 233.51 349.2C233.174 349.911 232.893 350.646 232.67 351.4C232.528 350.987 232.49 350.546 232.56 350.115C232.63 349.684 232.805 349.277 233.07 348.93C233.83 347.65 235.07 347.3 235.09 347.44Z" fill="#EB996E"/>
<path d="M233.58 332.75C233.53 332.75 233.33 332.52 233.18 332.04C233 331.386 233 330.695 233.18 330.04C233.354 329.394 233.7 328.806 234.18 328.34C234.54 327.99 234.84 327.87 234.87 327.92C234.393 328.618 234.007 329.374 233.72 330.17C233.571 331.021 233.524 331.888 233.58 332.75V332.75Z" fill="#EB996E"/>
<path d="M341.69 337.35C341.69 337.35 341.02 324.23 327.42 321.51C313.82 318.79 290 330.35 290 330.35L223.26 376.86L225.26 382.61L293 373.17L299.2 375.55L346.78 344.29L391.68 311.83L386.68 307.92C386.68 307.92 374.1 316.59 365.78 320.32C357.46 324.05 345.43 330.59 341.69 337.35Z" fill="#F5F5F5"/>
<path d="M222.23 384.51L278.71 349.42L338.42 339.83C338.42 339.83 341.42 344.17 346.49 343.11L395.59 309.11L396.52 311.16L301.3 378.06C299.902 378.571 298.39 378.69 296.929 378.404C295.468 378.119 294.113 377.44 293.01 376.44L222.23 384.51Z" fill="#455A64"/>
<path d="M338.42 339.83C338.285 339.977 338.13 340.105 337.96 340.21L336.58 341.21C335.38 342.07 333.65 343.32 331.58 344.9C327.34 348.05 321.58 352.54 315.36 357.63C309.14 362.72 303.55 367.45 299.55 370.9L294.78 375L293.48 376.1C293.339 376.24 293.181 376.361 293.01 376.46C293.01 376.46 293.13 376.3 293.41 376.03L294.64 374.85C295.72 373.85 297.29 372.39 299.27 370.64C303.21 367.12 308.74 362.36 314.99 357.25C321.24 352.14 326.99 347.7 331.32 344.62C333.46 343.07 335.23 341.87 336.47 341.06L337.9 340.14C338.063 340.021 338.238 339.917 338.42 339.83Z" fill="#263238"/>
<path d="M337.81 332.53C332.4 326.72 323.88 324.65 315.96 325.27C308.04 325.89 300.53 328.84 293.14 331.77L224.05 379.06L224.67 380.84L294.13 333.84C294.13 333.84 309.65 328.84 316.52 327.98C328 326.55 337.81 332.53 337.81 332.53Z" fill="#E0E0E0"/>
<path d="M348.65 338.75L381.87 316.34C381.87 316.34 354.65 330.5 348.65 338.75Z" fill="#E0E0E0"/>
<path d="M224.05 379.06C224.135 378.973 224.229 378.896 224.33 378.83L225.19 378.22L228.5 375.89L240.74 367.41L281.24 339.6L293 331.6C299.692 328.581 306.753 326.459 314 325.29C319.854 324.463 325.823 325.305 331.22 327.72C333.238 328.658 335.098 329.907 336.73 331.42C337.951 332.558 338.99 333.876 339.81 335.33C340.326 336.241 340.729 337.211 341.01 338.22C341.08 338.55 341.14 338.81 341.19 339.01C341.212 339.099 341.229 339.189 341.24 339.28C340.881 337.931 340.35 336.634 339.66 335.42C338.82 334.004 337.775 332.721 336.56 331.61C334.923 330.144 333.076 328.93 331.08 328.01C325.735 325.686 319.848 324.897 314.08 325.73C306.891 326.908 299.886 329.016 293.24 332H293.29L281.53 340L241 367.71L228.66 376.06L225.3 378.3L224.41 378.88C224.297 378.952 224.176 379.013 224.05 379.06V379.06Z" fill="#263238"/>
<path d="M284.53 343.31C284.687 343.179 284.863 343.072 285.05 342.99C285.4 342.8 285.92 342.51 286.59 342.17C287.94 341.47 289.91 340.49 292.39 339.37C298.821 336.356 305.645 334.265 312.66 333.16C319.712 332.095 326.918 332.754 333.66 335.08C335.686 335.811 337.633 336.745 339.47 337.87C340.13 338.25 340.6 338.62 340.93 338.87C341.105 338.977 341.269 339.101 341.42 339.24C341.42 339.24 340.69 338.82 339.37 338.07C337.51 337.025 335.558 336.152 333.54 335.46C326.829 333.258 319.695 332.659 312.71 333.71C305.745 334.811 298.956 336.829 292.52 339.71C290.03 340.79 288.04 341.71 286.66 342.36L285.08 343.09C284.904 343.181 284.72 343.255 284.53 343.31V343.31Z" fill="#263238"/>
<path d="M389.9 310.42C389.9 310.42 389.76 310.55 389.47 310.75L388.18 311.61L383.39 314.69C379.33 317.29 373.74 320.88 367.61 324.92C361.48 328.96 356 332.67 352 335.37L347.27 338.55L345.97 339.4C345.825 339.506 345.667 339.594 345.5 339.66C345.624 339.529 345.761 339.412 345.91 339.31L347.16 338.38C348.24 337.58 349.82 336.45 351.79 335.06C355.73 332.29 361.21 328.52 367.35 324.48C373.49 320.44 379.12 316.9 383.22 314.38C385.27 313.12 386.94 312.12 388.1 311.44L389.45 310.66C389.592 310.566 389.743 310.486 389.9 310.42Z" fill="#263238"/>
<path d="M359.68 346.38C359.002 348.013 358.139 349.563 357.11 351C355.83 352.52 351.65 354.64 351.32 357.53C350.99 360.42 351.67 367.2 347.15 372.36C344.236 375.57 340.549 377.98 336.44 379.36L318.61 377.62L290.13 366.41C289.493 366.249 288.946 365.844 288.605 365.283C288.265 364.722 288.159 364.049 288.31 363.41C288.487 362.715 288.866 362.089 289.401 361.612C289.935 361.134 290.6 360.827 291.31 360.73L291.99 360.62C291.99 360.62 290.35 359.28 292.7 356.93C294.7 354.93 298.97 356.06 301.17 356.79C303.37 357.52 316.27 362.91 318.58 363.74C320.63 364.47 322.21 365.12 322.21 365.12C322.21 365.12 305.7 353.98 305.47 352.52C305.2 350.77 305.38 349.97 307.07 348.75C309.07 347.3 312.35 348.85 315.53 350.19C317.9 351.19 333.01 358.65 333.01 358.65C333.01 358.65 333.69 357.99 333.01 356.65C332.33 355.31 327.31 348.85 326.52 347.65C325.73 346.45 325.52 345.77 326.31 344.76C327.41 343.33 330.31 342.65 332.98 345.09C334.67 346.65 340.68 350.69 340.68 350.69L368.42 330.45C368.42 330.45 371.87 330.36 370.67 335.17C369.47 339.98 359.68 346.38 359.68 346.38Z" fill="#FFBE9D"/>
<path d="M339 363.25C337.89 363.004 336.856 362.493 335.986 361.762C335.116 361.031 334.434 360.101 334 359.05C334.13 358.97 334.94 360.21 336.32 361.36C337.7 362.51 339.07 363.1 339 363.25Z" fill="#EB996E"/>
<path d="M341.28 351.18C341.28 351.12 341.65 351.01 342.28 351.09C343.066 351.204 343.805 351.532 344.417 352.038C345.029 352.545 345.49 353.209 345.75 353.96C345.94 354.54 345.91 354.96 345.84 354.96C345.421 354.026 344.823 353.184 344.08 352.48C343.24 351.869 342.289 351.427 341.28 351.18Z" fill="#EB996E"/>
<path d="M342.59 356.75C342.44 356.75 342.37 355.26 341.78 353.56C341.19 351.86 340.36 350.61 340.48 350.56C341.359 351.309 341.984 352.311 342.27 353.43C342.717 354.477 342.829 355.637 342.59 356.75V356.75Z" fill="#EB996E"/>
<path d="M359 344.94C359 344.99 358.65 344.79 358.29 344.31C357.834 343.673 357.548 342.929 357.461 342.15C357.373 341.371 357.487 340.583 357.79 339.86C358.03 339.32 358.3 339.05 358.35 339.09C357.994 340.048 357.867 341.076 357.98 342.092C358.093 343.108 358.442 344.084 359 344.94V344.94Z" fill="#EB996E"/>
<path d="M333.93 370.23C333.288 370.377 332.622 370.377 331.98 370.23C330.426 369.955 328.935 369.399 327.58 368.59C326.231 367.797 324.962 366.876 323.79 365.84C323.268 365.457 322.806 364.999 322.42 364.48C322.995 364.769 323.533 365.128 324.02 365.55C325.239 366.491 326.515 367.356 327.84 368.14C329.152 368.917 330.57 369.5 332.05 369.87C333.19 370.11 333.93 370.15 333.93 370.23Z" fill="#EB996E"/>
<path d="M338.57 367.37C338.71 367.37 338.72 368.37 337.88 369.2C337.04 370.03 336.02 369.99 336.04 369.85C336.06 369.71 336.83 369.51 337.51 368.85C338.19 368.19 338.42 367.35 338.57 367.37Z" fill="#EB996E"/>
<path d="M345.38 362.37C345.44 362.37 345.44 362.64 345.25 363C344.987 363.444 344.592 363.793 344.12 364C343.652 364.228 343.124 364.305 342.61 364.22C342.21 364.14 342.01 363.98 342.04 363.92C342.07 363.86 342.96 364 343.9 363.53C344.84 363.06 345.24 362.32 345.38 362.37Z" fill="#EB996E"/>
<path d="M321.36 373.72C321.31 373.85 314.68 371.09 306.56 367.54C298.44 363.99 291.9 361 292 360.88C292.1 360.76 298.69 363.52 306.81 367.07C314.93 370.62 321.42 373.59 321.36 373.72Z" fill="#EB996E"/>
<path d="M0.719922 276.11L22.4199 382.64H210.77C211.767 382.64 212.724 382.244 213.429 381.539C214.134 380.833 214.53 379.877 214.53 378.88V378.88C214.531 378.385 214.435 377.895 214.247 377.438C214.058 376.981 213.781 376.565 213.432 376.215C213.083 375.864 212.668 375.587 212.211 375.397C211.754 375.207 211.265 375.11 210.77 375.11H172.85L152.73 276C152.544 275.075 152.044 274.243 151.315 273.643C150.587 273.044 149.673 272.714 148.73 272.71L4.79992 271.17C4.18576 271.164 3.57795 271.295 3.02097 271.553C2.46399 271.812 1.97193 272.192 1.58081 272.666C1.18969 273.14 0.9094 273.695 0.760446 274.291C0.611492 274.886 0.597646 275.508 0.719922 276.11V276.11Z" fill="#E0E0E0"/>
<path d="M0.719923 276.11L0.659922 275.79C0.619219 275.458 0.619219 275.122 0.659922 274.79C0.730957 274.152 0.948448 273.54 1.2954 273.001C1.64235 272.461 2.10935 272.009 2.65992 271.68C3.04228 271.445 3.46147 271.276 3.89992 271.18C4.3888 271.099 4.8848 271.068 5.37992 271.09H8.76992L17.2499 271.16L71.6799 271.67L109.62 272.06L130.88 272.27L142.02 272.39L147.72 272.45C148.21 272.45 148.66 272.45 149.18 272.45C149.688 272.507 150.182 272.653 150.64 272.88C151.563 273.33 152.294 274.097 152.7 275.04C152.887 275.507 153.022 275.993 153.1 276.49L153.39 277.92C153.58 278.92 153.78 279.84 153.98 280.8C154.367 282.727 154.76 284.667 155.16 286.62C155.953 290.52 156.757 294.47 157.57 298.47C159.197 306.47 160.863 314.647 162.57 323C165.96 339.7 169.5 357.07 173.13 375L172.88 374.8H210.17C210.662 374.782 211.154 374.812 211.64 374.89C212.641 375.105 213.521 375.695 214.1 376.54C214.685 377.382 214.925 378.416 214.77 379.43C214.679 380.044 214.446 380.628 214.091 381.137C213.735 381.645 213.266 382.064 212.72 382.36C212.171 382.653 211.562 382.817 210.94 382.84H110.85H22.4199H22.2599V382.68C15.6199 349.93 10.2599 323.3 6.48992 304.84C4.62992 295.62 3.18992 288.44 2.20992 283.56C1.72992 281.12 1.36326 279.27 1.10992 278.01C0.859922 276.75 0.749922 276.11 0.749922 276.11C0.749922 276.11 0.899922 276.75 1.15992 277.99C1.41992 279.23 1.81992 281.11 2.31992 283.53C3.31992 288.41 4.80992 295.58 6.70992 304.8C10.4899 323.25 15.9399 349.87 22.6499 382.6L22.4499 382.44L110.88 382.39H210.9C211.437 382.369 211.963 382.229 212.44 381.98C212.913 381.72 213.32 381.354 213.631 380.912C213.941 380.47 214.146 379.963 214.23 379.43C214.359 378.544 214.152 377.641 213.65 376.9C213.138 376.17 212.371 375.66 211.5 375.47C211.05 375.402 210.595 375.375 210.14 375.39H172.64V375.19C169.01 357.28 165.48 339.91 162.1 323.19C160.4 314.83 158.733 306.65 157.1 298.65L154.7 286.8C154.31 284.85 153.91 282.91 153.52 280.99C153.33 279.99 153.13 279.06 152.94 278.11L152.65 276.67C152.575 276.206 152.454 275.75 152.29 275.31C152.015 274.679 151.578 274.132 151.023 273.724C150.468 273.317 149.815 273.063 149.13 272.99C148.69 272.99 148.19 272.99 147.72 272.99L142.02 272.92L130.87 272.8L109.62 272.55L71.6699 272.1L17.2399 271.43L8.76992 271.32L5.37992 271.27C4.8918 271.24 4.40185 271.267 3.91992 271.35C3.49023 271.439 3.07806 271.597 2.69992 271.82C2.16046 272.135 1.69995 272.569 1.35339 273.089C1.00683 273.609 0.783346 274.201 0.699922 274.82C0.660205 275.249 0.666911 275.682 0.719923 276.11V276.11Z" fill="#263238"/>
<path d="M81.2898 331.08C84.725 331.08 87.5098 328.295 87.5098 324.86C87.5098 321.425 84.725 318.64 81.2898 318.64C77.8546 318.64 75.0698 321.425 75.0698 324.86C75.0698 328.295 77.8546 331.08 81.2898 331.08Z" fill="white"/>
<path d="M0.899902 277C0.899902 277 1.1199 277 1.5499 277H10.7699L37.6999 277.13L126.55 277.75L139.4 277.86H142.56C143.099 277.84 143.638 277.873 144.17 277.96C144.984 278.126 145.736 278.513 146.343 279.08C146.95 279.646 147.389 280.37 147.61 281.17C147.85 282.17 148.02 283.17 148.23 284.17L152.82 307.31C155.73 322.06 158.36 335.31 160.56 346.5C162.76 357.69 164.56 366.67 165.74 372.92C166.34 376.03 166.8 378.45 167.12 380.11C167.27 380.92 167.39 381.55 167.47 381.99C167.55 382.43 167.57 382.63 167.57 382.63C167.57 382.63 167.51 382.42 167.42 382C167.33 381.58 167.19 380.94 167.02 380.13L165.54 373C164.28 366.75 162.46 357.74 160.2 346.61C157.94 335.48 155.3 322.18 152.35 307.44C150.88 300.07 149.35 292.33 147.73 284.31C147.52 283.31 147.34 282.31 147.12 281.31C146.856 280.36 146.251 279.541 145.42 279.01C145.008 278.746 144.55 278.563 144.07 278.47C143.568 278.388 143.058 278.358 142.55 278.38H139.4L126.55 278.28L37.6999 277.5L10.7699 277.2L3.4499 277H1.5399H0.899902Z" fill="#263238"/>
</svg>
